<?xml version="1.0" encoding="UTF-8" standalone="no"?>
<!-- Created with Inkscape (http://www.inkscape.org/) -->

<svg
   xmlns:dc="http://purl.org/dc/elements/1.1/"
   xmlns:cc="http://creativecommons.org/ns#"
   xmlns:rdf="http://www.w3.org/1999/02/22-rdf-syntax-ns#"
   xmlns:svg="http://www.w3.org/2000/svg"
   xmlns="http://www.w3.org/2000/svg"
   xmlns:sodipodi="http://sodipodi.sourceforge.net/DTD/sodipodi-0.dtd"
   xmlns:inkscape="http://www.inkscape.org/namespaces/inkscape"
   version="1.1"
   id="svg3807"
   width="24"
   height="8"
   viewBox="0 0 24 8"
   sodipodi:docname="bowserfire.svg"
   inkscape:version="0.92.3 (2405546, 2018-03-11)">
  <metadata
     id="metadata3813">
    <rdf:RDF>
      <cc:Work
         rdf:about="">
        <dc:format>image/svg+xml</dc:format>
        <dc:type
           rdf:resource="http://purl.org/dc/dcmitype/StillImage" />
        <dc:title></dc:title>
      </cc:Work>
    </rdf:RDF>
  </metadata>
  <defs
     id="defs3811" />
  <sodipodi:namedview
     pagecolor="#ffffff"
     bordercolor="#666666"
     borderopacity="1"
     objecttolerance="10"
     gridtolerance="10"
     guidetolerance="10"
     inkscape:pageopacity="0"
     inkscape:pageshadow="2"
     inkscape:window-width="1871"
     inkscape:window-height="1061"
     id="namedview3809"
     showgrid="true"
     inkscape:pagecheckerboard="true"
     inkscape:zoom="13.921165"
     inkscape:cx="20.748197"
     inkscape:cy="8.0179959"
     inkscape:window-x="49"
     inkscape:window-y="0"
     inkscape:window-maximized="1"
     inkscape:current-layer="svg3807"
     inkscape:snap-bbox="true"
     inkscape:bbox-nodes="true">
    <inkscape:grid
       type="xygrid"
       id="grid4360" />
  </sodipodi:namedview>
  <g
     id="g4394"
     transform="scale(0.5)">
    <path
       inkscape:connector-curvature="0"
       id="path4362"
       d="m 48,7 c 0,3 -10,7 -11,7 -1,0 -1,2 -2,2 -1,0 -1,-2 -2,-2 -1,0 -2,2 -3,2 -1,0 -4,0 -4,-1 0,-1 2,-1 2,-2 0,-1 -2,-1 -2,0 0,1 -2,3 -3,3 -1,0 -4,-2 -6,-2 -2,0 -4,2 -5,2 C 11,16 6,13 6,11 6,9 10,10 10,9 10,8 0,7 0,7 0,7 10,5 10,3 10,1 22,0 26,0 c 4,0 7,2 8,2 1,0 2,-2 3,-2 1,0 2,2 3,2 1,0 8,1 8,5 z"
       style="fill:#b53121;fill-opacity:1;fill-rule:evenodd;stroke:none;stroke-width:1px;stroke-linecap:butt;stroke-linejoin:miter;stroke-opacity:1" />
    <path
       inkscape:connector-curvature="0"
       id="path4382"
       d="M 45,7 C 45,6 40,4 39,4 38,4 36,6 34,6 32,6 32,4 28,4 c -4,0 -4,3 -2,3 -1,1 -8,1 -8,2 0,1 16,3 17,3 1,0 3,-2 6,-2 3,0 4,-1 4,-3 z"
       style="fill:#e79c21;fill-opacity:1;fill-rule:evenodd;stroke:none;stroke-width:1px;stroke-linecap:butt;stroke-linejoin:miter;stroke-opacity:1" />
    <path
       inkscape:connector-curvature="0"
       id="path4386"
       d="m 17,4 c 3,1 3,2 2,2 -1,0 -3,0 -3,-1 0,-1 1,-1 1,-1 z"
       style="fill:#e79c21;fill-opacity:1;fill-rule:evenodd;stroke:none;stroke-width:1px;stroke-linecap:butt;stroke-linejoin:miter;stroke-opacity:1" />
    <path
       inkscape:connector-curvature="0"
       id="path4388"
       d="M 45,9 C 44,7 37,7 37,7"
       style="fill:none;fill-rule:evenodd;stroke:#fffff6;stroke-width:2;stroke-linecap:round;stroke-linejoin:miter;stroke-miterlimit:4;stroke-dasharray:none;stroke-opacity:1" />
  </g>
</svg>
