<?xml version="1.0" encoding="UTF-8" standalone="no"?>
<!-- Created with Inkscape (http://www.inkscape.org/) -->

<svg
   xmlns:dc="http://purl.org/dc/elements/1.1/"
   xmlns:cc="http://creativecommons.org/ns#"
   xmlns:rdf="http://www.w3.org/1999/02/22-rdf-syntax-ns#"
   xmlns:svg="http://www.w3.org/2000/svg"
   xmlns="http://www.w3.org/2000/svg"
   xmlns:sodipodi="http://sodipodi.sourceforge.net/DTD/sodipodi-0.dtd"
   xmlns:inkscape="http://www.inkscape.org/namespaces/inkscape"
   width="16"
   height="32"
   viewBox="0 0 16 32"
   id="svg2"
   version="1.1"
   inkscape:version="0.91 r13725"
   sodipodi:docname="bulletbilltop.svg">
  <defs
     id="defs4">
    <clipPath
       id="clipPath4288"
       clipPathUnits="userSpaceOnUse">
      <rect
         ry="0"
         y="1020.3622"
         x="0"
         height="32"
         width="32"
         id="rect4290"
         style="opacity:1;fill:#813d00;fill-opacity:1;fill-rule:nonzero;stroke:none;stroke-width:2;stroke-linecap:round;stroke-linejoin:round;stroke-miterlimit:4;stroke-dasharray:none;stroke-opacity:1" />
    </clipPath>
    <clipPath
       id="clipPath4292"
       clipPathUnits="userSpaceOnUse">
      <rect
         ry="0"
         y="1020.3622"
         x="0"
         height="32"
         width="32"
         id="rect4294"
         style="opacity:1;fill:#813d00;fill-opacity:1;fill-rule:nonzero;stroke:none;stroke-width:2;stroke-linecap:round;stroke-linejoin:round;stroke-miterlimit:4;stroke-dasharray:none;stroke-opacity:1" />
    </clipPath>
    <clipPath
       id="clipPath4288-2"
       clipPathUnits="userSpaceOnUse">
      <rect
         ry="0"
         y="1020.3622"
         x="0"
         height="32"
         width="32"
         id="rect4290-7"
         style="opacity:1;fill:#813d00;fill-opacity:1;fill-rule:nonzero;stroke:none;stroke-width:2;stroke-linecap:round;stroke-linejoin:round;stroke-miterlimit:4;stroke-dasharray:none;stroke-opacity:1" />
    </clipPath>
    <clipPath
       id="clipPath4292-0"
       clipPathUnits="userSpaceOnUse">
      <rect
         ry="0"
         y="1020.3622"
         x="0"
         height="32"
         width="32"
         id="rect4294-9"
         style="opacity:1;fill:#813d00;fill-opacity:1;fill-rule:nonzero;stroke:none;stroke-width:2;stroke-linecap:round;stroke-linejoin:round;stroke-miterlimit:4;stroke-dasharray:none;stroke-opacity:1" />
    </clipPath>
  </defs>
  <sodipodi:namedview
     id="base"
     pagecolor="#ffffff"
     bordercolor="#666666"
     borderopacity="1.0"
     inkscape:pageopacity="0.0"
     inkscape:pageshadow="2"
     inkscape:zoom="16"
     inkscape:cx="10.090315"
     inkscape:cy="14.550418"
     inkscape:document-units="in"
     inkscape:current-layer="layer1"
     showgrid="true"
     units="px"
     inkscape:window-width="1871"
     inkscape:window-height="1061"
     inkscape:window-x="49"
     inkscape:window-y="0"
     inkscape:window-maximized="1"
     inkscape:object-nodes="true"
     inkscape:snap-smooth-nodes="true"
     inkscape:snap-bbox="true"
     inkscape:bbox-nodes="true"
     showborder="true">
    <inkscape:grid
       type="xygrid"
       id="grid4133" />
  </sodipodi:namedview>
  <metadata
     id="metadata7">
    <rdf:RDF>
      <cc:Work
         rdf:about="">
        <dc:format>image/svg+xml</dc:format>
        <dc:type
           rdf:resource="http://purl.org/dc/dcmitype/StillImage" />
        <dc:title></dc:title>
      </cc:Work>
    </rdf:RDF>
  </metadata>
  <g
     inkscape:label="Layer 1"
     inkscape:groupmode="layer"
     id="layer1"
     transform="translate(0,-1020.3622)">
    <path
       style="fill:#000000;fill-opacity:1;fill-rule:evenodd;stroke:none;stroke-width:1px;stroke-linecap:butt;stroke-linejoin:miter;stroke-opacity:1"
       d="m 1.4039535e-7,1036.3622 2.99999995960465,0 0,-0.9999 1.4999999,0 0,0.9999 7,0 0,-0.9999 1.5,0 0,0.9999 3,0 0,-15 -15.99999985960465,0 z"
       id="path4329"
       inkscape:connector-curvature="0" />
    <path
       style="fill:#ffcdc6;fill-opacity:1;fill-rule:evenodd;stroke:none;stroke-width:1px;stroke-linecap:butt;stroke-linejoin:miter;stroke-opacity:1"
       d="m 13,1036.3622 0,-1.9999 -1.5,0 0,-1 1.5,0 0,-8.0001 -9,0 0,-2 9,0 0,-1 -9,0 0,-1 9,0 0,-1 3,0 0,1 -2,0 0,1 2,0 0,2 -2,0 0,10.0001 2,0 0,1 -2,0 0,0.9999 z"
       id="path4333"
       inkscape:connector-curvature="0" />
    <path
       style="fill:#ffcdc6;fill-opacity:1;fill-rule:evenodd;stroke:none;stroke-width:1px;stroke-linecap:butt;stroke-linejoin:miter;stroke-opacity:1"
       d="m 1.0000001,1036.3622 0,-0.9999 2,0 0,-1 -2,0 0,-10.0001 2,0 0,-2 -2,0 0,-1 2,0 0,-1 -2.99999995960465,0 0,16 z"
       id="path4331"
       inkscape:connector-curvature="0" />
    <ellipse
       style="opacity:1;fill:none;fill-opacity:1;fill-rule:nonzero;stroke:#9c4a00;stroke-width:1.00000274;stroke-linecap:butt;stroke-linejoin:round;stroke-miterlimit:4;stroke-dasharray:none;stroke-opacity:1"
       id="path4325"
       cx="8"
       cy="1032.3622"
       rx="1.4999999"
       ry="1.500008" />
    <path
       style="opacity:1;fill:#000000;fill-opacity:1;fill-rule:evenodd;stroke:none;stroke-width:1px;stroke-linecap:butt;stroke-linejoin:miter;stroke-opacity:1"
       d="m 4,1036.3622 8.008325,0 3.503642,9.0001 0,7 -15.0156089,0 0,-7 z"
       id="path4266"
       inkscape:connector-curvature="0" />
    <path
       style="opacity:1;fill:none;fill-opacity:1;fill-rule:evenodd;stroke:#9c4a00;stroke-width:1.00000274;stroke-linecap:butt;stroke-linejoin:round;stroke-miterlimit:4;stroke-dasharray:none;stroke-opacity:1"
       d="m 11.5,1032.3623 0,3.5 c 0,1.4142 4,7.0001 4,10.0001 l 0,6.5"
       id="path4262"
       inkscape:connector-curvature="0"
       sodipodi:nodetypes="cscc"
       clip-path="none" />
    <rect
       style="opacity:1;fill:#813d00;fill-opacity:1;fill-rule:nonzero;stroke:none;stroke-width:2;stroke-linecap:round;stroke-linejoin:round;stroke-miterlimit:4;stroke-dasharray:none;stroke-opacity:1"
       id="rect4270"
       width="10.010405"
       height="11.000057"
       x="2.9989593"
       y="1040.3622"
       ry="2.5000219" />
    <path
       sodipodi:nodetypes="ccsc"
       inkscape:connector-curvature="0"
       id="path4264"
       d="m 4.5,1032.3623 0,3.5 c 0,0.9999 -3.99999989,7.0001 -3.99999989,10.0001 l 0,6.5"
       style="opacity:1;fill:none;fill-opacity:1;fill-rule:evenodd;stroke:#ffcec6;stroke-width:1.00000274;stroke-linecap:butt;stroke-linejoin:round;stroke-miterlimit:4;stroke-dasharray:none;stroke-opacity:1"
       clip-path="none" />
    <path
       style="opacity:1;fill:none;fill-rule:evenodd;stroke:#e7b3a4;stroke-width:1.00052285;stroke-linecap:butt;stroke-linejoin:miter;stroke-miterlimit:4;stroke-dasharray:none;stroke-opacity:1"
       d="m 5.501561,1047.8623 c 1.5015605,-0.5 2.0020811,-0.5 2.0020811,-2 l 0,-3.5 1.0010405,0 0,3.5 c 0,1.5 0.5005205,1.5 2.0020814,2"
       id="path4276"
       inkscape:connector-curvature="0"
       sodipodi:nodetypes="csccsc" />
    <path
       id="path5142"
       style="opacity:1;fill:none;fill-opacity:1;fill-rule:nonzero;stroke:#9c4a00;stroke-width:1.00000179;stroke-linecap:butt;stroke-linejoin:round;stroke-miterlimit:4;stroke-dasharray:none;stroke-opacity:1"
       sodipodi:type="arc"
       sodipodi:cx="8"
       sodipodi:cy="1032.3622"
       sodipodi:rx="3.4999998"
       sodipodi:ry="3.5000186"
       sodipodi:start="3.9269908"
       sodipodi:end="0"
       d="M 5.5251264,1029.8873 A 3.4999998,3.5000186 0 0 1 9.3393919,1029.1286 3.4999998,3.5000186 0 0 1 11.5,1032.3622"
       sodipodi:open="true" />
    <g
       id="g6390"
       transform="matrix(0.5,0,0,0.5,27.5,516.6811)">
      <path
         sodipodi:nodetypes="csssscccccc"
         inkscape:connector-curvature="0"
         id="path6378"
         d="m -46,1062.3622 0,-6 c 0,-1 1,-6 4,-6 l 6,0 c 3,0 4,5 4,6 l 0,6 -4,0 0,4 -6,0 0,-4 z"
         style="fill:#ffcec6;fill-opacity:1;fill-rule:evenodd;stroke:#ffcec6;stroke-width:2;stroke-linecap:butt;stroke-linejoin:round;stroke-miterlimit:4;stroke-dasharray:none;stroke-opacity:1" />
      <rect
         ry="1"
         y="1063.3622"
         x="-41"
         height="2"
         width="4"
         id="rect6380"
         style="opacity:1;fill:#813d00;fill-opacity:1;fill-rule:nonzero;stroke:none;stroke-width:2;stroke-linecap:round;stroke-linejoin:round;stroke-miterlimit:4;stroke-dasharray:none;stroke-opacity:1" />
      <path
         sodipodi:nodetypes="ccccc"
         inkscape:connector-curvature="0"
         id="path6384"
         d="m -42,1053.3622 c -1,0 -2,1 -2,2 l 0,5 2,0 z"
         style="fill:none;fill-rule:evenodd;stroke:#8c4200;stroke-width:2;stroke-linecap:butt;stroke-linejoin:round;stroke-miterlimit:4;stroke-dasharray:none;stroke-opacity:1" />
      <path
         style="fill:none;fill-rule:evenodd;stroke:#8c4200;stroke-width:2;stroke-linecap:butt;stroke-linejoin:round;stroke-miterlimit:4;stroke-dasharray:none;stroke-opacity:1"
         d="m -36,1053.3622 c 1,0 2,1 2,2 l 0,5 -2,0 z"
         id="path6388"
         inkscape:connector-curvature="0"
         sodipodi:nodetypes="ccccc" />
    </g>
    <path
       sodipodi:open="true"
       d="m 4.5000002,1032.3622 a 3.4999998,3.5000186 0 0 1 2.1606079,-3.2336 3.4999998,3.5000186 0 0 1 3.8142649,0.7587"
       sodipodi:end="5.4977871"
       sodipodi:start="3.1415927"
       sodipodi:ry="3.5000186"
       sodipodi:rx="3.4999998"
       sodipodi:cy="1032.3622"
       sodipodi:cx="8"
       sodipodi:type="arc"
       id="path4255"
       style="opacity:1;fill:none;fill-opacity:1;fill-rule:nonzero;stroke:#ffcec6;stroke-width:1.00000179;stroke-linecap:butt;stroke-linejoin:round;stroke-miterlimit:4;stroke-dasharray:none;stroke-opacity:1" />
    <path
       sodipodi:open="true"
       d="m 6.9393399,1033.4228 a 1.4999999,1.500008 0 0 1 0,-2.1213 1.4999999,1.500008 0 0 1 2.1213201,0"
       sodipodi:end="5.4977871"
       sodipodi:start="2.3561945"
       sodipodi:ry="1.500008"
       sodipodi:rx="1.4999999"
       sodipodi:cy="1032.3622"
       sodipodi:cx="8"
       sodipodi:type="arc"
       style="opacity:1;fill:none;fill-opacity:1;fill-rule:nonzero;stroke:#ffcec6;stroke-width:1.00000274;stroke-linecap:butt;stroke-linejoin:round;stroke-miterlimit:4;stroke-dasharray:none;stroke-opacity:1"
       id="path4257" />
  </g>
</svg>
