<?xml version="1.0" encoding="UTF-8" standalone="no"?>
<!-- Created with Inkscape (http://www.inkscape.org/) -->

<svg
   xmlns:dc="http://purl.org/dc/elements/1.1/"
   xmlns:cc="http://creativecommons.org/ns#"
   xmlns:rdf="http://www.w3.org/1999/02/22-rdf-syntax-ns#"
   xmlns:svg="http://www.w3.org/2000/svg"
   xmlns="http://www.w3.org/2000/svg"
   xmlns:sodipodi="http://sodipodi.sourceforge.net/DTD/sodipodi-0.dtd"
   xmlns:inkscape="http://www.inkscape.org/namespaces/inkscape"
   id="svg4187"
   version="1.1"
   inkscape:version="0.91 r13725"
   width="12"
   height="13"
   viewBox="0 0 12 13"
   sodipodi:docname="koopapartshell.svg">
  <metadata
     id="metadata4193">
    <rdf:RDF>
      <cc:Work
         rdf:about="">
        <dc:format>image/svg+xml</dc:format>
        <dc:type
           rdf:resource="http://purl.org/dc/dcmitype/StillImage" />
        <dc:title></dc:title>
      </cc:Work>
    </rdf:RDF>
  </metadata>
  <defs
     id="defs4191">
    <clipPath
       clipPathUnits="userSpaceOnUse"
       id="clipPath4217">
      <path
         sodipodi:nodetypes="sccccccssss"
         inkscape:connector-curvature="0"
         id="path4219"
         d="M 9,0 C 7,0 4,6 4,7 l -2,3 -1,8 3,5 7,2 6,-1 c 0,0 0,-1 2,-1 2,0 3,-8 3,-11 C 22,9 20,0 14,0 Z"
         style="fill:#1d8400;fill-opacity:1;fill-rule:evenodd;stroke:none;stroke-width:1px;stroke-linecap:butt;stroke-linejoin:miter;stroke-opacity:1" />
    </clipPath>
    <clipPath
       clipPathUnits="userSpaceOnUse"
       id="clipPath4221">
      <path
         sodipodi:nodetypes="sccccccssss"
         inkscape:connector-curvature="0"
         id="path4223"
         d="M 9,0 C 7,0 4,6 4,7 l -2,3 -1,8 3,5 7,2 6,-1 c 0,0 0,-1 2,-1 2,0 3,-8 3,-11 C 22,9 20,0 14,0 Z"
         style="fill:#1d8400;fill-opacity:1;fill-rule:evenodd;stroke:none;stroke-width:1px;stroke-linecap:butt;stroke-linejoin:miter;stroke-opacity:1" />
    </clipPath>
    <clipPath
       clipPathUnits="userSpaceOnUse"
       id="clipPath4225">
      <path
         sodipodi:nodetypes="sccccccssss"
         inkscape:connector-curvature="0"
         id="path4227"
         d="M 9,0 C 7,0 4,6 4,7 l -2,3 -1,8 3,5 7,2 6,-1 c 0,0 0,-1 2,-1 2,0 3,-8 3,-11 C 22,9 20,0 14,0 Z"
         style="fill:#1d8400;fill-opacity:1;fill-rule:evenodd;stroke:none;stroke-width:1px;stroke-linecap:butt;stroke-linejoin:miter;stroke-opacity:1" />
    </clipPath>
  </defs>
  <sodipodi:namedview
     pagecolor="#00bbff"
     bordercolor="#666666"
     borderopacity="1"
     objecttolerance="10"
     gridtolerance="10"
     guidetolerance="10"
     inkscape:pageopacity="0"
     inkscape:pageshadow="2"
     inkscape:window-width="1871"
     inkscape:window-height="1061"
     id="namedview4189"
     showgrid="true"
     inkscape:object-nodes="false"
     inkscape:snap-smooth-nodes="false"
     inkscape:snap-bbox="true"
     inkscape:bbox-nodes="true"
     inkscape:zoom="32"
     inkscape:cx="0.89849548"
     inkscape:cy="9.2589146"
     inkscape:window-x="49"
     inkscape:window-y="0"
     inkscape:window-maximized="1"
     inkscape:current-layer="svg4187">
    <inkscape:grid
       type="xygrid"
       id="grid4197" />
  </sodipodi:namedview>
  <g
     id="g4274"
     transform="matrix(0.49999707,0,0,0.49976714,-7.607521e-4,0.0052953)">
    <path
       sodipodi:nodetypes="sccccccssss"
       inkscape:connector-curvature="0"
       id="path4201"
       d="M 9,0 C 7,0 4,6 4,7 l -2,3 -1,8 3,5 7,2 6,-1 c 0,0 0,-1 2,-1 2,0 3,-8 3,-11 C 22,9 20,0 14,0 Z"
       style="fill:#1d8400;fill-opacity:1;fill-rule:evenodd;stroke:none;stroke-width:1px;stroke-linecap:butt;stroke-linejoin:miter;stroke-opacity:1" />
    <path
       clip-path="url(#clipPath4225)"
       inkscape:connector-curvature="0"
       id="path4203"
       d="M 19,1 1,19"
       style="fill:none;fill-rule:evenodd;stroke:#d78d22;stroke-width:2;stroke-linecap:butt;stroke-linejoin:miter;stroke-miterlimit:4;stroke-dasharray:none;stroke-opacity:1" />
    <path
       clip-path="url(#clipPath4221)"
       inkscape:connector-curvature="0"
       id="path4205"
       d="M 23,17 7,1"
       style="fill:none;fill-rule:evenodd;stroke:#d78d22;stroke-width:2;stroke-linecap:butt;stroke-linejoin:miter;stroke-miterlimit:4;stroke-dasharray:none;stroke-opacity:1" />
    <path
       clip-path="url(#clipPath4217)"
       inkscape:connector-curvature="0"
       id="path4207"
       d="M 23,9 8,24"
       style="fill:none;fill-rule:evenodd;stroke:#d78d22;stroke-width:2;stroke-linecap:butt;stroke-linejoin:miter;stroke-miterlimit:4;stroke-dasharray:none;stroke-opacity:1" />
    <path
       sodipodi:nodetypes="cc"
       inkscape:connector-curvature="0"
       id="path4209"
       d="M 17,23 3,9"
       style="fill:none;fill-rule:evenodd;stroke:#d78d22;stroke-width:2;stroke-linecap:square;stroke-linejoin:miter;stroke-miterlimit:4;stroke-dasharray:none;stroke-opacity:1" />
    <path
       d="m 17,7 a 2,2 0 0 1 2,2"
       sodipodi:open="true"
       sodipodi:end="0"
       sodipodi:start="4.712389"
       sodipodi:ry="2"
       sodipodi:rx="2"
       sodipodi:cy="9"
       sodipodi:cx="17"
       sodipodi:type="arc"
       id="path4258"
       style="opacity:1;fill:#1d8400;fill-opacity:1;fill-rule:nonzero;stroke:#ffffff;stroke-width:2;stroke-linecap:round;stroke-linejoin:round;stroke-miterlimit:4;stroke-dasharray:none;stroke-opacity:1" />
    <path
       inkscape:connector-curvature="0"
       id="path4199"
       d="M 5,3 C 3,6 1,13 1,17 c 0,4 5,8 10,8 5,0 12,-4 12,-4"
       style="fill:none;fill-rule:evenodd;stroke:#ffffff;stroke-width:2;stroke-linecap:round;stroke-linejoin:miter;stroke-miterlimit:4;stroke-dasharray:none;stroke-opacity:1" />
  </g>
</svg>
