<?xml version="1.0" encoding="UTF-8" standalone="no"?>
<!-- Created with Inkscape (http://www.inkscape.org/) -->

<svg
   xmlns:dc="http://purl.org/dc/elements/1.1/"
   xmlns:cc="http://creativecommons.org/ns#"
   xmlns:rdf="http://www.w3.org/1999/02/22-rdf-syntax-ns#"
   xmlns:svg="http://www.w3.org/2000/svg"
   xmlns="http://www.w3.org/2000/svg"
   xmlns:sodipodi="http://sodipodi.sourceforge.net/DTD/sodipodi-0.dtd"
   xmlns:inkscape="http://www.inkscape.org/namespaces/inkscape"
   id="svg4187"
   version="1.1"
   inkscape:version="0.91 r13725"
   width="8"
   height="8"
   viewBox="0 0 8 8"
   sodipodi:docname="liftplatform.svg">
  <metadata
     id="metadata4193">
    <rdf:RDF>
      <cc:Work
         rdf:about="">
        <dc:format>image/svg+xml</dc:format>
        <dc:type
           rdf:resource="http://purl.org/dc/dcmitype/StillImage" />
        <dc:title></dc:title>
      </cc:Work>
    </rdf:RDF>
  </metadata>
  <defs
     id="defs4191">
    <clipPath
       clipPathUnits="userSpaceOnUse"
       id="clipPath4292">
      <path
         style="fill:#ffffff;fill-opacity:1;fill-rule:evenodd;stroke:none;stroke-width:1px;stroke-linecap:butt;stroke-linejoin:miter;stroke-opacity:1"
         d="M 2,6 C 2,6 2,5 4,5 L 6,4 C 6,3 6.6622717,3 6.6622717,3 L 7.5903494,4.4976117 6.6954173,6.5194952 Z"
         id="path4294"
         inkscape:connector-curvature="0" />
    </clipPath>
  </defs>
  <sodipodi:namedview
     pagecolor="#00c0ff"
     bordercolor="#666666"
     borderopacity="1"
     objecttolerance="10"
     gridtolerance="10"
     guidetolerance="10"
     inkscape:pageopacity="0"
     inkscape:pageshadow="2"
     inkscape:window-width="1871"
     inkscape:window-height="1061"
     id="namedview4189"
     showgrid="true"
     inkscape:snap-bbox="true"
     inkscape:bbox-nodes="true"
     inkscape:zoom="64"
     inkscape:cx="2.7155741"
     inkscape:cy="4.1725241"
     inkscape:window-x="49"
     inkscape:window-y="0"
     inkscape:window-maximized="1"
     inkscape:current-layer="svg4187"
     showguides="false">
    <inkscape:grid
       type="xygrid"
       id="grid4197" />
  </sodipodi:namedview>
  <g
     id="g4303"
     transform="scale(0.5,0.5)">
    <path
       id="rect4300"
       d="M 0,4 0,14 16,14 16,4 0,4 Z M 8,5 A 6,4 0 0 1 14,9 6,4 0 0 1 8,13 6,4 0 0 1 2,9 6,4 0 0 1 8,5 Z"
       style="opacity:1;fill:#e79d22;fill-opacity:1;fill-rule:nonzero;stroke:none;stroke-width:0.99000001;stroke-linecap:butt;stroke-linejoin:round;stroke-miterlimit:4;stroke-dasharray:none;stroke-opacity:1"
       inkscape:connector-curvature="0" />
    <path
       inkscape:connector-curvature="0"
       id="path4296"
       d="m 14,7.00025 -1.140625,0.8125 -0.3125,2.8125 L 7.09375,12.06275 4.578125,12.172126 4.3125,12.640876 9,14.344 15.046875,11.81275 Z"
       style="fill:#e79d22;fill-opacity:1;fill-rule:evenodd;stroke:none;stroke-width:1px;stroke-linecap:butt;stroke-linejoin:miter;stroke-opacity:1" />
    <rect
       y="14"
       x="0"
       height="2"
       width="16"
       id="rect4217"
       style="opacity:1;fill:#b53121;fill-opacity:1;fill-rule:nonzero;stroke:none;stroke-width:1.98000002;stroke-linecap:butt;stroke-linejoin:round;stroke-miterlimit:10;stroke-dasharray:none;stroke-opacity:1" />
    <rect
       y="2"
       x="0"
       height="2"
       width="16"
       id="rect4219"
       style="opacity:1;fill:#b53121;fill-opacity:1;fill-rule:nonzero;stroke:none;stroke-width:1.98000002;stroke-linecap:butt;stroke-linejoin:round;stroke-miterlimit:10;stroke-dasharray:none;stroke-opacity:1" />
    <rect
       y="0"
       x="0"
       height="2"
       width="16"
       id="rect4221"
       style="opacity:1;fill:#ffffff;fill-opacity:1;fill-rule:nonzero;stroke:none;stroke-width:1.98000002;stroke-linecap:butt;stroke-linejoin:round;stroke-miterlimit:10;stroke-dasharray:none;stroke-opacity:1" />
    <path
       transform="matrix(2,0,0,2,0,1.0002707)"
       sodipodi:open="true"
       clip-path="url(#clipPath4292)"
       d="M 5.7677669,2.9393398 A 2.5,1.5 0 0 1 6.4148146,4.3882285 2.5,1.5 0 0 1 4.6470476,5.4488887 2.5,1.5 0 0 1 2.232233,5.0606602"
       sodipodi:end="2.3561945"
       sodipodi:start="5.4977871"
       sodipodi:ry="1.5"
       sodipodi:rx="2.5"
       sodipodi:cy="4"
       sodipodi:cx="4"
       sodipodi:type="arc"
       id="path4199"
       style="opacity:1;fill:none;fill-opacity:1;fill-rule:nonzero;stroke:#b53121;stroke-width:0.99000001;stroke-linecap:butt;stroke-linejoin:round;stroke-miterlimit:10;stroke-dasharray:none;stroke-opacity:1" />
  </g>
</svg>
