<?xml version="1.0" encoding="UTF-8" standalone="no"?>
<!-- Created with Inkscape (http://www.inkscape.org/) -->

<svg
   xmlns:dc="http://purl.org/dc/elements/1.1/"
   xmlns:cc="http://creativecommons.org/ns#"
   xmlns:rdf="http://www.w3.org/1999/02/22-rdf-syntax-ns#"
   xmlns:svg="http://www.w3.org/2000/svg"
   xmlns="http://www.w3.org/2000/svg"
   xmlns:sodipodi="http://sodipodi.sourceforge.net/DTD/sodipodi-0.dtd"
   xmlns:inkscape="http://www.inkscape.org/namespaces/inkscape"
   id="svg4219"
   version="1.1"
   inkscape:version="0.91 r13725"
   width="16"
   height="16"
   viewBox="0 0 16 16"
   sodipodi:docname="mushroomleft.svg">
  <metadata
     id="metadata4225">
    <rdf:RDF>
      <cc:Work
         rdf:about="">
        <dc:format>image/svg+xml</dc:format>
        <dc:type
           rdf:resource="http://purl.org/dc/dcmitype/StillImage" />
        <dc:title></dc:title>
      </cc:Work>
    </rdf:RDF>
  </metadata>
  <defs
     id="defs4223" />
  <sodipodi:namedview
     pagecolor="#ffffff"
     bordercolor="#666666"
     borderopacity="1"
     objecttolerance="10"
     gridtolerance="10"
     guidetolerance="10"
     inkscape:pageopacity="0"
     inkscape:pageshadow="2"
     inkscape:window-width="1871"
     inkscape:window-height="1061"
     id="namedview4221"
     showgrid="true"
     borderlayer="true"
     inkscape:showpageshadow="false"
     inkscape:snap-bbox="true"
     inkscape:bbox-nodes="true"
     inkscape:zoom="11.258711"
     inkscape:cx="26.48503"
     inkscape:cy="10.942803"
     inkscape:window-x="49"
     inkscape:window-y="0"
     inkscape:window-maximized="1"
     inkscape:current-layer="svg4219">
    <inkscape:grid
       type="xygrid"
       id="grid4229" />
  </sodipodi:namedview>
  <g
     id="g5974"
     transform="scale(0.5,0.5)">
    <path
       inkscape:connector-curvature="0"
       id="path4235"
       d="M 32,31 C 19,31 1,31 1,27 1,23 1,15 1,11 1,7 4,1 13,1 22,1 32,1 32,1"
       style="fill:#e09e2a;fill-opacity:1;fill-rule:evenodd;stroke:none;stroke-width:2;stroke-linecap:butt;stroke-linejoin:miter;stroke-miterlimit:4;stroke-dasharray:none;stroke-opacity:1" />
    <ellipse
       ry="7.5"
       rx="7"
       cy="19.5"
       cx="25"
       id="path4233"
       style="opacity:1;fill:#ae2f28;fill-opacity:1;fill-rule:nonzero;stroke:none;stroke-width:2;stroke-linecap:round;stroke-linejoin:round;stroke-miterlimit:4;stroke-dasharray:none;stroke-opacity:1" />
    <path
       d="M 13.239107,1.0608582 A 9,9 0 0 1 17.830624,10.737835 9,9 0 0 1 9.9147156,17.953396 9,9 0 0 1 0.70323158,12.48764 L 9,9 Z"
       sodipodi:end="2.7436576"
       sodipodi:start="5.2028265"
       sodipodi:ry="9"
       sodipodi:rx="9"
       sodipodi:cy="9"
       sodipodi:cx="9"
       sodipodi:type="arc"
       id="path4231"
       style="opacity:1;fill:#ae2f28;fill-opacity:1;fill-rule:nonzero;stroke:none;stroke-width:2;stroke-linecap:round;stroke-linejoin:round;stroke-miterlimit:4;stroke-dasharray:none;stroke-opacity:1" />
    <path
       inkscape:connector-curvature="0"
       id="path4239"
       d="M 13,1 13,5.4333566 9,13 1,13 2.5436148,6 9.6092114,1 Z"
       style="fill:#ae2f28;fill-opacity:1;fill-rule:evenodd;stroke:none;stroke-width:1px;stroke-linecap:butt;stroke-linejoin:miter;stroke-opacity:1" />
    <path
       style="fill:none;fill-opacity:1;fill-rule:evenodd;stroke:#000000;stroke-width:2;stroke-linecap:butt;stroke-linejoin:miter;stroke-miterlimit:4;stroke-dasharray:none;stroke-opacity:1"
       d="M 32,31 C 19,31 1,31 1,27 1,23 1,15 1,11 1,7 4,1 13,1 22,1 32,1 32,1"
       id="path4237"
       inkscape:connector-curvature="0" />
  </g>
</svg>
