<?xml version="1.0" encoding="UTF-8" standalone="no"?>
<!-- Created with Inkscape (http://www.inkscape.org/) -->

<svg
   xmlns:dc="http://purl.org/dc/elements/1.1/"
   xmlns:cc="http://creativecommons.org/ns#"
   xmlns:rdf="http://www.w3.org/1999/02/22-rdf-syntax-ns#"
   xmlns:svg="http://www.w3.org/2000/svg"
   xmlns="http://www.w3.org/2000/svg"
   xmlns:sodipodi="http://sodipodi.sourceforge.net/DTD/sodipodi-0.dtd"
   xmlns:inkscape="http://www.inkscape.org/namespaces/inkscape"
   width="16"
   height="16"
   viewBox="0 0 16 16"
   id="svg2"
   version="1.1"
   inkscape:version="0.91 r13725"
   sodipodi:docname="overworldcoinblock1.svg">
  <defs
     id="defs4" />
  <sodipodi:namedview
     id="base"
     pagecolor="#ffffff"
     bordercolor="#666666"
     borderopacity="1.0"
     inkscape:pageopacity="0.0"
     inkscape:pageshadow="2"
     inkscape:zoom="4"
     inkscape:cx="46.943598"
     inkscape:cy="35.322148"
     inkscape:document-units="in"
     inkscape:current-layer="layer1"
     showgrid="true"
     units="px"
     inkscape:window-width="1871"
     inkscape:window-height="1061"
     inkscape:window-x="49"
     inkscape:window-y="0"
     inkscape:window-maximized="1"
     inkscape:object-nodes="true"
     inkscape:snap-bbox="true"
     inkscape:snap-bbox-edge-midpoints="false"
     inkscape:bbox-nodes="true"
     inkscape:snap-global="true">
    <inkscape:grid
       type="xygrid"
       id="grid4133" />
  </sodipodi:namedview>
  <metadata
     id="metadata7">
    <rdf:RDF>
      <cc:Work
         rdf:about="">
        <dc:format>image/svg+xml</dc:format>
        <dc:type
           rdf:resource="http://purl.org/dc/dcmitype/StillImage" />
        <dc:title></dc:title>
      </cc:Work>
    </rdf:RDF>
  </metadata>
  <g
     inkscape:label="Layer 1"
     inkscape:groupmode="layer"
     id="layer1"
     transform="translate(0,-1036.3622)">
    <path
       style="fill:#e79c21;fill-opacity:1;fill-rule:evenodd;stroke:none;stroke-width:1px;stroke-linecap:butt;stroke-linejoin:miter;stroke-opacity:1"
       d="m 1,1051.3622 c 0,-4.5 0,-9 0,-13.5 l 0.5,-0.5 13,0 0.5,0.5 c 0,4.5 0,9 0,13.5 z"
       id="path4139"
       inkscape:connector-curvature="0"
       sodipodi:nodetypes="ccccccc" />
    <ellipse
       style="opacity:1;fill:#000000;fill-opacity:1;stroke:none;stroke-width:0.35299999;stroke-miterlimit:4;stroke-dasharray:none"
       id="path4141"
       cx="2.5"
       cy="1049.8622"
       rx="0.5"
       ry="0.49999973" />
    <ellipse
       style="opacity:1;fill:#000000;fill-opacity:1;stroke:none;stroke-width:0.35299999;stroke-miterlimit:4;stroke-dasharray:none"
       id="path4141-3"
       cx="13.5"
       cy="1049.8622"
       rx="0.5"
       ry="0.49999973" />
    <ellipse
       style="opacity:1;fill:#000000;fill-opacity:1;stroke:none;stroke-width:0.35299999;stroke-miterlimit:4;stroke-dasharray:none"
       id="path4141-6"
       cx="2.5"
       cy="1038.8622"
       rx="0.5"
       ry="0.49999973" />
    <ellipse
       style="opacity:1;fill:#000000;fill-opacity:1;stroke:none;stroke-width:0.35299999;stroke-miterlimit:4;stroke-dasharray:none"
       id="path4141-3-7"
       cx="13.5"
       cy="1038.8622"
       rx="0.5"
       ry="0.49999973" />
    <path
       style="fill:#000000;fill-opacity:1;fill-rule:evenodd;stroke:none;stroke-width:1px;stroke-linecap:butt;stroke-linejoin:miter;stroke-opacity:1"
       d="m 0,1052.3622 1,-1 14,0 0,-13.5 -0.25,-0.2499 0.75,-0.7501 0.5,0.5 0,15 z"
       id="path6038"
       inkscape:connector-curvature="0"
       sodipodi:nodetypes="ccccccccc" />
    <path
       style="fill:#9c4a00;fill-opacity:1;fill-rule:evenodd;stroke:none;stroke-width:1px;stroke-linecap:butt;stroke-linejoin:miter;stroke-opacity:1"
       d="m 0,1052.3622 1,-1 0,-13.5 0.5,-0.5 13,0 0.25,0.2501 0.75,-0.7501 -0.5,-0.5 -14,0 -1,1 z"
       id="path6040"
       inkscape:connector-curvature="0" />
    <circle
       style="opacity:1;fill:#000000;fill-opacity:1.0;stroke:none;stroke-width:2;stroke-miterlimit:4;stroke-dasharray:none"
       id="path6042"
       cx="9"
       cy="1049.3622"
       r="1" />
    <circle
       style="opacity:1;fill:#9c4a00;fill-opacity:1;stroke:none;stroke-width:2;stroke-miterlimit:4;stroke-dasharray:none"
       id="path6044"
       cx="8"
       cy="1048.3622"
       r="1" />
    <path
       style="fill:none;fill-rule:evenodd;stroke:#000000;stroke-width:2;stroke-linecap:round;stroke-linejoin:miter;stroke-miterlimit:4;stroke-dasharray:none;stroke-opacity:1"
       d="m 9,1046.3622 c 1.662913,-1.5745 1.835868,-2.6029 1.883423,-3.4298 0.03081,-0.5358 -0.107099,-1.1447 -0.727173,-1.8827 -0.5931797,-0.706 -1.1279048,-0.6565 -1.6307602,-0.6259 -0.6465102,0.039 -1.0528409,0.2937 -1.6504898,0.7504 -1.123664,0.8587 -0.875,2.1875 -0.875,2.1875"
       id="path6208"
       inkscape:connector-curvature="0"
       sodipodi:nodetypes="cssssc" />
    <path
       sodipodi:nodetypes="cssssc"
       inkscape:connector-curvature="0"
       id="path6279"
       d="m 7.9996427,1045.3624 c 1.662913,-1.5745 1.835868,-2.6029 1.883423,-3.4298 0.03081,-0.5358 -0.107099,-1.1447 -0.727173,-1.8827 -0.5931797,-0.706 -1.1279048,-0.6565 -1.6307602,-0.6259 -0.6465102,0.039 -1.0528409,0.2937 -1.6504898,0.7504 -1.123664,0.8587 -0.875,2.1875 -0.875,2.1875"
       style="fill:none;fill-rule:evenodd;stroke:#9c4a00;stroke-width:2;stroke-linecap:round;stroke-linejoin:miter;stroke-miterlimit:4;stroke-dasharray:none;stroke-opacity:1" />
  </g>
</svg>
