<?xml version="1.0" encoding="UTF-8" standalone="no"?>
<!-- Created with Inkscape (http://www.inkscape.org/) -->

<svg
   xmlns:dc="http://purl.org/dc/elements/1.1/"
   xmlns:cc="http://creativecommons.org/ns#"
   xmlns:rdf="http://www.w3.org/1999/02/22-rdf-syntax-ns#"
   xmlns:svg="http://www.w3.org/2000/svg"
   xmlns="http://www.w3.org/2000/svg"
   xmlns:sodipodi="http://sodipodi.sourceforge.net/DTD/sodipodi-0.dtd"
   xmlns:inkscape="http://www.inkscape.org/namespaces/inkscape"
   version="1.1"
   id="svg866"
   width="16"
   height="24"
   viewBox="0 0 16 24"
   sodipodi:docname="overworldkoopa2.svg"
   inkscape:version="0.92.3 (2405546, 2018-03-11)">
  <metadata
     id="metadata872">
    <rdf:RDF>
      <cc:Work
         rdf:about="">
        <dc:format>image/svg+xml</dc:format>
        <dc:type
           rdf:resource="http://purl.org/dc/dcmitype/StillImage" />
        <dc:title></dc:title>
      </cc:Work>
    </rdf:RDF>
  </metadata>
  <defs
     id="defs870">
    <clipPath
       clipPathUnits="userSpaceOnUse"
       id="clipPath1772">
      <path
         sodipodi:nodetypes="sssss"
         inkscape:connector-curvature="0"
         id="path1774"
         d="m 20,20 c 7,0 9,5 10,13 1,8 -4,11 -11,11 -7,0 -9,-6 -9,-8 0,-2 2,-16 10,-16 z"
         style="fill:#1e8400;fill-opacity:1;fill-rule:evenodd;stroke:none;stroke-width:1px;stroke-linecap:butt;stroke-linejoin:miter;stroke-opacity:1" />
    </clipPath>
    <clipPath
       clipPathUnits="userSpaceOnUse"
       id="clipPath1776">
      <path
         sodipodi:nodetypes="sssss"
         inkscape:connector-curvature="0"
         id="path1778"
         d="m 20,20 c 7,0 9,5 10,13 1,8 -4,11 -11,11 -7,0 -9,-6 -9,-8 0,-2 2,-16 10,-16 z"
         style="fill:#1e8400;fill-opacity:1;fill-rule:evenodd;stroke:none;stroke-width:1px;stroke-linecap:butt;stroke-linejoin:miter;stroke-opacity:1" />
    </clipPath>
    <clipPath
       clipPathUnits="userSpaceOnUse"
       id="clipPath1780">
      <path
         sodipodi:nodetypes="sssss"
         inkscape:connector-curvature="0"
         id="path1782"
         d="m 20,20 c 7,0 9,5 10,13 1,8 -4,11 -11,11 -7,0 -9,-6 -9,-8 0,-2 2,-16 10,-16 z"
         style="fill:#1e8400;fill-opacity:1;fill-rule:evenodd;stroke:none;stroke-width:1px;stroke-linecap:butt;stroke-linejoin:miter;stroke-opacity:1" />
    </clipPath>
    <clipPath
       clipPathUnits="userSpaceOnUse"
       id="clipPath1784">
      <path
         sodipodi:nodetypes="sssss"
         inkscape:connector-curvature="0"
         id="path1786"
         d="m 20,20 c 7,0 9,5 10,13 1,8 -4,11 -11,11 -7,0 -9,-6 -9,-8 0,-2 2,-16 10,-16 z"
         style="fill:#1e8400;fill-opacity:1;fill-rule:evenodd;stroke:none;stroke-width:1px;stroke-linecap:butt;stroke-linejoin:miter;stroke-opacity:1" />
    </clipPath>
    <clipPath
       id="clipPath4225"
       clipPathUnits="userSpaceOnUse">
      <path
         style="fill:#1d8400;fill-opacity:1;fill-rule:evenodd;stroke:none;stroke-width:1px;stroke-linecap:butt;stroke-linejoin:miter;stroke-opacity:1"
         d="M 9,0 C 7,0 4,6 4,7 l -2,3 -1,8 3,5 7,2 6,-1 c 0,0 0,-1 2,-1 2,0 3,-8 3,-11 C 22,9 20,0 14,0 Z"
         id="path4227"
         inkscape:connector-curvature="0"
         sodipodi:nodetypes="sccccccssss" />
    </clipPath>
    <clipPath
       id="clipPath4221"
       clipPathUnits="userSpaceOnUse">
      <path
         style="fill:#1d8400;fill-opacity:1;fill-rule:evenodd;stroke:none;stroke-width:1px;stroke-linecap:butt;stroke-linejoin:miter;stroke-opacity:1"
         d="M 9,0 C 7,0 4,6 4,7 l -2,3 -1,8 3,5 7,2 6,-1 c 0,0 0,-1 2,-1 2,0 3,-8 3,-11 C 22,9 20,0 14,0 Z"
         id="path4223"
         inkscape:connector-curvature="0"
         sodipodi:nodetypes="sccccccssss" />
    </clipPath>
    <clipPath
       id="clipPath4217"
       clipPathUnits="userSpaceOnUse">
      <path
         style="fill:#1d8400;fill-opacity:1;fill-rule:evenodd;stroke:none;stroke-width:1px;stroke-linecap:butt;stroke-linejoin:miter;stroke-opacity:1"
         d="M 9,0 C 7,0 4,6 4,7 l -2,3 -1,8 3,5 7,2 6,-1 c 0,0 0,-1 2,-1 2,0 3,-8 3,-11 C 22,9 20,0 14,0 Z"
         id="path4219"
         inkscape:connector-curvature="0"
         sodipodi:nodetypes="sccccccssss" />
    </clipPath>
    <clipPath
       id="clipPath2204"
       clipPathUnits="userSpaceOnUse">
      <path
         inkscape:connector-curvature="0"
         id="path2206"
         d="m 20,18 c 6,0 10,7 10,13 0,6 -5,11 -11,11 -6,0 -9,-5 -9,-8 0,-3 4,-16 10,-16 z"
         style="fill:#1e8400;fill-opacity:1;fill-rule:evenodd;stroke:none;stroke-width:1px;stroke-linecap:butt;stroke-linejoin:miter;stroke-opacity:1" />
    </clipPath>
    <clipPath
       id="clipPath2208"
       clipPathUnits="userSpaceOnUse">
      <path
         inkscape:connector-curvature="0"
         id="path2210"
         d="m 20,18 c 6,0 10,7 10,13 0,6 -5,11 -11,11 -6,0 -9,-5 -9,-8 0,-3 4,-16 10,-16 z"
         style="fill:#1e8400;fill-opacity:1;fill-rule:evenodd;stroke:none;stroke-width:1px;stroke-linecap:butt;stroke-linejoin:miter;stroke-opacity:1" />
    </clipPath>
    <clipPath
       id="clipPath2212"
       clipPathUnits="userSpaceOnUse">
      <path
         inkscape:connector-curvature="0"
         id="path2214"
         d="m 20,18 c 6,0 10,7 10,13 0,6 -5,11 -11,11 -6,0 -9,-5 -9,-8 0,-3 4,-16 10,-16 z"
         style="fill:#1e8400;fill-opacity:1;fill-rule:evenodd;stroke:none;stroke-width:1px;stroke-linecap:butt;stroke-linejoin:miter;stroke-opacity:1" />
    </clipPath>
  </defs>
  <sodipodi:namedview
     pagecolor="#ffffff"
     bordercolor="#666666"
     borderopacity="1"
     objecttolerance="10"
     gridtolerance="10"
     guidetolerance="10"
     inkscape:pageopacity="0"
     inkscape:pageshadow="2"
     inkscape:window-width="1871"
     inkscape:window-height="1061"
     id="namedview868"
     showgrid="true"
     inkscape:pagecheckerboard="true"
     inkscape:snap-bbox="true"
     inkscape:bbox-nodes="true"
     inkscape:zoom="16"
     inkscape:cx="-11.095297"
     inkscape:cy="6.9994328"
     inkscape:window-x="49"
     inkscape:window-y="0"
     inkscape:window-maximized="1"
     inkscape:current-layer="svg866">
    <inkscape:grid
       type="xygrid"
       id="grid876" />
  </sodipodi:namedview>
  <g
     id="g2003"
     transform="scale(0.5)">
    <path
       inkscape:connector-curvature="0"
       id="path1792"
       d="m 10,40 c -5,4 -10,8 -6,8 4,0 5,0 7,0 2,0 4,-3 4,-3 z"
       style="fill:#d78d22;fill-opacity:1;fill-rule:evenodd;stroke:none;stroke-width:1px;stroke-linecap:butt;stroke-linejoin:miter;stroke-opacity:1" />
    <path
       inkscape:connector-curvature="0"
       id="path1794"
       d="m 27,43 c 3,2 5,3 5,4 0,1 -1,1 -2,1 -1,0 -3,0 -4,0 -1,0 -3,-3 -3,-3 z"
       style="fill:#d78d22;fill-opacity:1;fill-rule:evenodd;stroke:none;stroke-width:1px;stroke-linecap:butt;stroke-linejoin:miter;stroke-opacity:1" />
    <path
       style="fill:#1e8400;fill-opacity:1;fill-rule:evenodd;stroke:none;stroke-width:1px;stroke-linecap:butt;stroke-linejoin:miter;stroke-opacity:1"
       d="m 20,20 c 7,0 9,5 10,13 1,8 -4,11 -11,11 -7,0 -9,-6 -9,-8 0,-2 2,-16 10,-16 z"
       id="path1796"
       inkscape:connector-curvature="0"
       sodipodi:nodetypes="sssss" />
    <path
       style="fill:none;fill-rule:evenodd;stroke:#ffffff;stroke-width:2;stroke-linecap:round;stroke-linejoin:miter;stroke-miterlimit:4;stroke-dasharray:none;stroke-opacity:1"
       d="m 25,27 c 1,0 2,1 2,2"
       id="path1798"
       inkscape:connector-curvature="0" />
    <path
       style="fill:none;fill-rule:evenodd;stroke:#d78d22;stroke-width:2;stroke-linecap:butt;stroke-linejoin:miter;stroke-miterlimit:4;stroke-dasharray:none;stroke-opacity:1"
       d="M 15,21 31,37"
       id="path1800"
       inkscape:connector-curvature="0"
       clip-path="url(#clipPath1784)" />
    <path
       style="fill:none;fill-rule:evenodd;stroke:#d78d22;stroke-width:2;stroke-linecap:butt;stroke-linejoin:miter;stroke-miterlimit:4;stroke-dasharray:none;stroke-opacity:1"
       d="M 11,29 25,43"
       id="path1802"
       inkscape:connector-curvature="0"
       clip-path="url(#clipPath1780)" />
    <path
       style="fill:none;fill-rule:evenodd;stroke:#d78d22;stroke-width:2;stroke-linecap:butt;stroke-linejoin:miter;stroke-miterlimit:4;stroke-dasharray:none;stroke-opacity:1"
       d="M 27,21 9,39"
       id="path1804"
       inkscape:connector-curvature="0"
       clip-path="url(#clipPath1776)" />
    <path
       style="fill:none;fill-rule:evenodd;stroke:#d78d22;stroke-width:2;stroke-linecap:butt;stroke-linejoin:miter;stroke-miterlimit:4;stroke-dasharray:none;stroke-opacity:1"
       d="M 31,29 15,45"
       id="path1806"
       inkscape:connector-curvature="0"
       clip-path="url(#clipPath1772)" />
    <path
       inkscape:connector-curvature="0"
       id="path1812"
       d="M 9,39 C 7,38 6,37 6,36 6,35 4,34 4,33 4,32 8,28 8,24 8,20 4,24 4,26 4,28 3,31 2,29 1,27 0,28 0,25 0,22 3,4 7,4 c 4,0 7,8 7,10 0,2 -2,8 -2,12"
       style="fill:#d78d22;fill-opacity:1;fill-rule:evenodd;stroke:none;stroke-width:1px;stroke-linecap:butt;stroke-linejoin:miter;stroke-opacity:1" />
    <ellipse
       style="opacity:1;fill:#ffffff;fill-opacity:1;fill-rule:nonzero;stroke:none;stroke-width:2;stroke-linecap:round;stroke-linejoin:round;stroke-miterlimit:4;stroke-dasharray:none;stroke-opacity:1;paint-order:normal"
       id="ellipse2248"
       cx="7"
       cy="10"
       rx="3"
       ry="8" />
    <ellipse
       style="opacity:1;fill:#1e8400;fill-opacity:1;fill-rule:nonzero;stroke:none;stroke-width:2;stroke-linecap:round;stroke-linejoin:round;stroke-miterlimit:4;stroke-dasharray:none;stroke-opacity:1;paint-order:normal"
       id="ellipse2250"
       cx="4.5"
       cy="11"
       rx="1.5"
       ry="4" />
    <circle
       r="1"
       cy="19"
       cx="3"
       id="path1986"
       style="opacity:1;fill:#1e8400;fill-opacity:1;fill-rule:nonzero;stroke:none;stroke-width:2;stroke-linecap:round;stroke-linejoin:round;stroke-miterlimit:4;stroke-dasharray:none;stroke-opacity:1;paint-order:normal" />
    <path
       style="fill:none;fill-rule:evenodd;stroke:#ffffff;stroke-width:2;stroke-linecap:round;stroke-linejoin:miter;stroke-miterlimit:4;stroke-dasharray:none;stroke-opacity:1"
       d="m 12,26 c -2,4 -3,8 -3,10 0,2 3,9 10,9 7,0 8,-4 12,-4"
       id="path1988"
       inkscape:connector-curvature="0"
       sodipodi:nodetypes="cssc" />
  </g>
</svg>
