<?xml version="1.0" encoding="UTF-8" standalone="no"?>
<!-- Created with Inkscape (http://www.inkscape.org/) -->

<svg
   xmlns:dc="http://purl.org/dc/elements/1.1/"
   xmlns:cc="http://creativecommons.org/ns#"
   xmlns:rdf="http://www.w3.org/1999/02/22-rdf-syntax-ns#"
   xmlns:svg="http://www.w3.org/2000/svg"
   xmlns="http://www.w3.org/2000/svg"
   xmlns:sodipodi="http://sodipodi.sourceforge.net/DTD/sodipodi-0.dtd"
   xmlns:inkscape="http://www.inkscape.org/namespaces/inkscape"
   id="svg4225"
   version="1.1"
   inkscape:version="0.91 r13725"
   width="16"
   height="16"
   viewBox="0 0 16 16"
   sodipodi:docname="shell.svg">
  <metadata
     id="metadata4231">
    <rdf:RDF>
      <cc:Work
         rdf:about="">
        <dc:format>image/svg+xml</dc:format>
        <dc:type
           rdf:resource="http://purl.org/dc/dcmitype/StillImage" />
        <dc:title></dc:title>
      </cc:Work>
    </rdf:RDF>
  </metadata>
  <defs
     id="defs4229">
    <clipPath
       clipPathUnits="userSpaceOnUse"
       id="clipPath4251">
      <path
         inkscape:connector-curvature="0"
         id="path4253"
         d="M 2,19 C 2,14 6,2 16,2 26,2 30,14 30,19 l -14,9 z"
         style="fill:#1e8400;fill-opacity:1;fill-rule:evenodd;stroke:none;stroke-width:1px;stroke-linecap:butt;stroke-linejoin:miter;stroke-opacity:1" />
    </clipPath>
    <clipPath
       clipPathUnits="userSpaceOnUse"
       id="clipPath4255">
      <path
         inkscape:connector-curvature="0"
         id="path4257"
         d="M 2,19 C 2,14 6,2 16,2 26,2 30,14 30,19 l -14,9 z"
         style="fill:#1e8400;fill-opacity:1;fill-rule:evenodd;stroke:none;stroke-width:1px;stroke-linecap:butt;stroke-linejoin:miter;stroke-opacity:1" />
    </clipPath>
  </defs>
  <sodipodi:namedview
     pagecolor="#00adff"
     bordercolor="#666666"
     borderopacity="1"
     objecttolerance="10"
     gridtolerance="10"
     guidetolerance="10"
     inkscape:pageopacity="0"
     inkscape:pageshadow="2"
     inkscape:window-width="1871"
     inkscape:window-height="1061"
     id="namedview4227"
     showgrid="true"
     inkscape:object-nodes="false"
     inkscape:snap-bbox="true"
     inkscape:bbox-nodes="true"
     inkscape:zoom="16"
     inkscape:cx="18.564975"
     inkscape:cy="10.064769"
     inkscape:window-x="49"
     inkscape:window-y="0"
     inkscape:window-maximized="1"
     inkscape:current-layer="svg4225">
    <inkscape:grid
       type="xygrid"
       id="grid4235" />
  </sodipodi:namedview>
  <g
     id="g4330">
    <path
       inkscape:connector-curvature="0"
       id="path4239"
       d="M 0.99998486,9.5 C 0.99998486,7 2.9999244,1 7.9997731,1 12.999622,1 14.999561,7 14.999561,9.5 L 7.9997731,14 Z"
       style="fill:#1e8400;fill-opacity:1;fill-rule:evenodd;stroke:none;stroke-width:1px;stroke-linecap:butt;stroke-linejoin:miter;stroke-opacity:1" />
    <path
       sodipodi:nodetypes="csc"
       inkscape:connector-curvature="0"
       id="path4241"
       d="M 3.9998941,11 C 4.9998639,10 6.4998185,8.5 7.9997731,8.5 9.4997277,8.5 10.999682,10 11.999652,11"
       style="fill:none;fill-rule:evenodd;stroke:#d78d22;stroke-width:0.99998486;stroke-linecap:butt;stroke-linejoin:miter;stroke-miterlimit:4;stroke-dasharray:none;stroke-opacity:1" />
    <path
       sodipodi:nodetypes="csc"
       inkscape:connector-curvature="0"
       id="path4243"
       d="m 3.4999093,5.5 c 1.4999546,1.5 2.9999092,3 4.4998638,3 1.4999546,0 2.9999089,-1.5 4.4998639,-3"
       style="fill:none;fill-rule:evenodd;stroke:#d78d22;stroke-width:0.99998486;stroke-linecap:butt;stroke-linejoin:miter;stroke-miterlimit:4;stroke-dasharray:none;stroke-opacity:1" />
    <path
       transform="matrix(0.49998487,0,0,0.5,1.512e-5,0)"
       clip-path="url(#clipPath4255)"
       inkscape:connector-curvature="0"
       id="path4245"
       d="m 10,2 c 2,2 4,3 6,3 2,0 4,-1 6,-3"
       style="fill:none;fill-rule:evenodd;stroke:#d78d22;stroke-width:2;stroke-linecap:butt;stroke-linejoin:miter;stroke-miterlimit:4;stroke-dasharray:none;stroke-opacity:1" />
    <path
       transform="matrix(0.49998487,0,0,0.5,1.512e-5,0)"
       clip-path="url(#clipPath4251)"
       sodipodi:nodetypes="csc"
       inkscape:connector-curvature="0"
       id="path4247"
       d="M -2,21 2,16 C 6,11 12,5 16,5 c 4,0 10,6 14,11 l 4,5"
       style="fill:none;fill-rule:evenodd;stroke:#d78d22;stroke-width:2;stroke-linecap:butt;stroke-linejoin:miter;stroke-miterlimit:4;stroke-dasharray:none;stroke-opacity:1" />
    <path
       sodipodi:nodetypes="csc"
       inkscape:connector-curvature="0"
       id="path4237"
       d="m 0.99998486,10 c 2.49992444,0 4.49986384,4 6.99978824,4 2.4999239,0 3.9998789,-4 6.9997879,-4"
       style="fill:none;fill-rule:evenodd;stroke:#ffffff;stroke-width:1.99996972;stroke-linecap:round;stroke-linejoin:miter;stroke-miterlimit:4;stroke-dasharray:none;stroke-opacity:1" />
  </g>
</svg>
