<?xml version="1.0" encoding="UTF-8" standalone="no"?>
<!-- Created with Inkscape (http://www.inkscape.org/) -->

<svg
   xmlns:dc="http://purl.org/dc/elements/1.1/"
   xmlns:cc="http://creativecommons.org/ns#"
   xmlns:rdf="http://www.w3.org/1999/02/22-rdf-syntax-ns#"
   xmlns:svg="http://www.w3.org/2000/svg"
   xmlns="http://www.w3.org/2000/svg"
   xmlns:sodipodi="http://sodipodi.sourceforge.net/DTD/sodipodi-0.dtd"
   xmlns:inkscape="http://www.inkscape.org/namespaces/inkscape"
   version="1.1"
   id="svg957"
   width="16"
   height="16"
   viewBox="0 0 16 16"
   sodipodi:docname="treestem.svg"
   inkscape:version="0.92.3 (2405546, 2018-03-11)">
  <metadata
     id="metadata963">
    <rdf:RDF>
      <cc:Work
         rdf:about="">
        <dc:format>image/svg+xml</dc:format>
        <dc:type
           rdf:resource="http://purl.org/dc/dcmitype/StillImage" />
        <dc:title></dc:title>
      </cc:Work>
    </rdf:RDF>
  </metadata>
  <defs
     id="defs961">
    <clipPath
       clipPathUnits="userSpaceOnUse"
       id="clipPath1041">
      <rect
         style="opacity:1;fill:#8cd600;fill-opacity:1;fill-rule:nonzero;stroke:none;stroke-width:2;stroke-linecap:round;stroke-linejoin:round;stroke-miterlimit:4;stroke-dasharray:none;stroke-opacity:1;paint-order:normal"
         id="rect1043"
         width="32"
         height="32"
         x="0"
         y="0" />
    </clipPath>
  </defs>
  <sodipodi:namedview
     pagecolor="#ffffff"
     bordercolor="#666666"
     borderopacity="1"
     objecttolerance="10"
     gridtolerance="10"
     guidetolerance="10"
     inkscape:pageopacity="0"
     inkscape:pageshadow="2"
     inkscape:window-width="1871"
     inkscape:window-height="1061"
     id="namedview959"
     showgrid="true"
     inkscape:pagecheckerboard="true"
     inkscape:snap-bbox="true"
     inkscape:bbox-nodes="true"
     inkscape:zoom="32"
     inkscape:cx="6.8298759"
     inkscape:cy="9.4286146"
     inkscape:window-x="49"
     inkscape:window-y="0"
     inkscape:window-maximized="1"
     inkscape:current-layer="svg957">
    <inkscape:grid
       type="xygrid"
       id="grid967" />
  </sodipodi:namedview>
  <g
     id="g1083"
     transform="scale(0.5)">
    <path
       inkscape:connector-curvature="0"
       id="path1045"
       d="m 9,0 h 14 l -1,14 -1,1 2,3 -1,12 -1,2 H 11 L 10,30 9,17 11,15 10,14 Z"
       style="fill:#ffcec6;fill-opacity:1;fill-rule:evenodd;stroke:none;stroke-width:1px;stroke-linecap:butt;stroke-linejoin:miter;stroke-opacity:1" />
    <g
       id="g1063"
       clip-path="url(#clipPath1041)">
      <path
         inkscape:connector-curvature="0"
         id="path1047"
         d="m 11,-2 c 0,1 -2,3 -2,3 0,0 0,1 0,6 0,5 2,7 2,8 0,1 -2,2 -2,2 0,0 0,1 0,6 0,5 2,7 2,8 0,1 -2,2 -2,2"
         style="fill:none;fill-rule:evenodd;stroke:#000000;stroke-width:2;stroke-linecap:butt;stroke-linejoin:round;stroke-miterlimit:4;stroke-dasharray:none;stroke-opacity:1;paint-order:normal" />
      <path
         inkscape:connector-curvature="0"
         id="path1049"
         d="m 21,-1 c 0,1 2,2 2,2 0,0 0,1 0,6 0,5 -2,7 -2,8 0,1 2,2 2,2 0,0 0,1 0,6 0,5 -2,7 -2,8 0,1 2,2 2,2"
         style="fill:none;fill-rule:evenodd;stroke:#000000;stroke-width:2;stroke-linecap:butt;stroke-linejoin:round;stroke-miterlimit:4;stroke-dasharray:none;stroke-opacity:1" />
      <path
         inkscape:connector-curvature="0"
         id="path1051"
         d="M 21,14 C 19,12 19,6 19,5"
         style="fill:none;fill-rule:evenodd;stroke:#000000;stroke-width:2;stroke-linecap:round;stroke-linejoin:miter;stroke-miterlimit:4;stroke-dasharray:none;stroke-opacity:1" />
      <path
         style="fill:none;fill-rule:evenodd;stroke:#000000;stroke-width:2;stroke-linecap:round;stroke-linejoin:miter;stroke-miterlimit:4;stroke-dasharray:none;stroke-opacity:1"
         d="M 21,30 C 19,28 19,22 19,21"
         id="path1053"
         inkscape:connector-curvature="0" />
      <path
         inkscape:connector-curvature="0"
         id="path1055"
         d="m 13,1 c 1,-3 5,-3 6,0"
         style="fill:none;fill-rule:evenodd;stroke:#000000;stroke-width:2;stroke-linecap:round;stroke-linejoin:miter;stroke-miterlimit:4;stroke-dasharray:none;stroke-opacity:1" />
      <path
         style="fill:none;fill-rule:evenodd;stroke:#000000;stroke-width:2;stroke-linecap:round;stroke-linejoin:miter;stroke-miterlimit:4;stroke-dasharray:none;stroke-opacity:1"
         d="m 13,1 c 1,-3 5,-3 6,0"
         id="path1057"
         inkscape:connector-curvature="0" />
      <path
         inkscape:connector-curvature="0"
         id="path1059"
         d="m 13,17 c 1,-3 5,-3 6,0"
         style="fill:none;fill-rule:evenodd;stroke:#000000;stroke-width:2;stroke-linecap:round;stroke-linejoin:miter;stroke-miterlimit:4;stroke-dasharray:none;stroke-opacity:1" />
      <path
         style="fill:none;fill-rule:evenodd;stroke:#000000;stroke-width:2;stroke-linecap:round;stroke-linejoin:miter;stroke-miterlimit:4;stroke-dasharray:none;stroke-opacity:1"
         d="m 13,33 c 1,-3 5,-3 6,0"
         id="path1061"
         inkscape:connector-curvature="0" />
    </g>
  </g>
</svg>
