<?xml version="1.0" encoding="UTF-8" standalone="no"?>
<!-- Created with Inkscape (http://www.inkscape.org/) -->

<svg
   xmlns:dc="http://purl.org/dc/elements/1.1/"
   xmlns:cc="http://creativecommons.org/ns#"
   xmlns:rdf="http://www.w3.org/1999/02/22-rdf-syntax-ns#"
   xmlns:svg="http://www.w3.org/2000/svg"
   xmlns="http://www.w3.org/2000/svg"
   xmlns:sodipodi="http://sodipodi.sourceforge.net/DTD/sodipodi-0.dtd"
   xmlns:inkscape="http://www.inkscape.org/namespaces/inkscape"
   version="1.1"
   id="svg866"
   width="16"
   height="24"
   viewBox="0 0 16 24"
   sodipodi:docname="underwaterkoopa1.svg"
   inkscape:version="0.92.3 (2405546, 2018-03-11)">
  <metadata
     id="metadata872">
    <rdf:RDF>
      <cc:Work
         rdf:about="">
        <dc:format>image/svg+xml</dc:format>
        <dc:type
           rdf:resource="http://purl.org/dc/dcmitype/StillImage" />
        <dc:title></dc:title>
      </cc:Work>
    </rdf:RDF>
  </metadata>
  <defs
     id="defs870">
    <clipPath
       clipPathUnits="userSpaceOnUse"
       id="clipPath4225">
      <path
         sodipodi:nodetypes="sccccccssss"
         inkscape:connector-curvature="0"
         id="path4227"
         d="M 9,0 C 7,0 4,6 4,7 l -2,3 -1,8 3,5 7,2 6,-1 c 0,0 0,-1 2,-1 2,0 3,-8 3,-11 C 22,9 20,0 14,0 Z"
         style="fill:#1d8400;fill-opacity:1;fill-rule:evenodd;stroke:none;stroke-width:1px;stroke-linecap:butt;stroke-linejoin:miter;stroke-opacity:1" />
    </clipPath>
    <clipPath
       clipPathUnits="userSpaceOnUse"
       id="clipPath4221">
      <path
         sodipodi:nodetypes="sccccccssss"
         inkscape:connector-curvature="0"
         id="path4223"
         d="M 9,0 C 7,0 4,6 4,7 l -2,3 -1,8 3,5 7,2 6,-1 c 0,0 0,-1 2,-1 2,0 3,-8 3,-11 C 22,9 20,0 14,0 Z"
         style="fill:#1d8400;fill-opacity:1;fill-rule:evenodd;stroke:none;stroke-width:1px;stroke-linecap:butt;stroke-linejoin:miter;stroke-opacity:1" />
    </clipPath>
    <clipPath
       clipPathUnits="userSpaceOnUse"
       id="clipPath4217">
      <path
         sodipodi:nodetypes="sccccccssss"
         inkscape:connector-curvature="0"
         id="path4219"
         d="M 9,0 C 7,0 4,6 4,7 l -2,3 -1,8 3,5 7,2 6,-1 c 0,0 0,-1 2,-1 2,0 3,-8 3,-11 C 22,9 20,0 14,0 Z"
         style="fill:#1d8400;fill-opacity:1;fill-rule:evenodd;stroke:none;stroke-width:1px;stroke-linecap:butt;stroke-linejoin:miter;stroke-opacity:1" />
    </clipPath>
    <clipPath
       clipPathUnits="userSpaceOnUse"
       id="clipPath2204">
      <path
         style="fill:#1e8400;fill-opacity:1;fill-rule:evenodd;stroke:none;stroke-width:1px;stroke-linecap:butt;stroke-linejoin:miter;stroke-opacity:1"
         d="m 20,18 c 6,0 10,7 10,13 0,6 -5,11 -11,11 -6,0 -9,-5 -9,-8 0,-3 4,-16 10,-16 z"
         id="path2206"
         inkscape:connector-curvature="0" />
    </clipPath>
    <clipPath
       clipPathUnits="userSpaceOnUse"
       id="clipPath2208">
      <path
         style="fill:#1e8400;fill-opacity:1;fill-rule:evenodd;stroke:none;stroke-width:1px;stroke-linecap:butt;stroke-linejoin:miter;stroke-opacity:1"
         d="m 20,18 c 6,0 10,7 10,13 0,6 -5,11 -11,11 -6,0 -9,-5 -9,-8 0,-3 4,-16 10,-16 z"
         id="path2210"
         inkscape:connector-curvature="0" />
    </clipPath>
    <clipPath
       clipPathUnits="userSpaceOnUse"
       id="clipPath2212">
      <path
         style="fill:#1e8400;fill-opacity:1;fill-rule:evenodd;stroke:none;stroke-width:1px;stroke-linecap:butt;stroke-linejoin:miter;stroke-opacity:1"
         d="m 20,18 c 6,0 10,7 10,13 0,6 -5,11 -11,11 -6,0 -9,-5 -9,-8 0,-3 4,-16 10,-16 z"
         id="path2214"
         inkscape:connector-curvature="0" />
    </clipPath>
  </defs>
  <sodipodi:namedview
     pagecolor="#ffffff"
     bordercolor="#666666"
     borderopacity="1"
     objecttolerance="10"
     gridtolerance="10"
     guidetolerance="10"
     inkscape:pageopacity="0"
     inkscape:pageshadow="2"
     inkscape:window-width="1871"
     inkscape:window-height="1061"
     id="namedview868"
     showgrid="true"
     inkscape:pagecheckerboard="true"
     inkscape:snap-bbox="true"
     inkscape:bbox-nodes="true"
     inkscape:snap-smooth-nodes="false"
     inkscape:zoom="16"
     inkscape:cx="2.7388198"
     inkscape:cy="19.5789"
     inkscape:window-x="49"
     inkscape:window-y="0"
     inkscape:window-maximized="1"
     inkscape:current-layer="svg866">
    <inkscape:grid
       type="xygrid"
       id="grid876" />
  </sodipodi:namedview>
  <g
     id="g1635">
    <path
       sodipodi:nodetypes="csssssc"
       inkscape:connector-curvature="0"
       id="path2230"
       d="M 4.5,17 C 2.5,15.5 0.232233,15 1,13.5 1.767767,12 5,11.5 5,10 5,8.5 2,9.5 1.5,11 1,12.5 0,10.733126 0,9.5 0,8.266874 1.5,1 4,1 5.5,1 7,2.5 7,10"
       style="fill:#d78d22;fill-opacity:1;fill-rule:evenodd;stroke:none;stroke-width:0.5px;stroke-linecap:butt;stroke-linejoin:miter;stroke-opacity:1" />
    <path
       style="fill:#d78d22;fill-opacity:1;fill-rule:evenodd;stroke:none;stroke-width:0.5px;stroke-linecap:butt;stroke-linejoin:miter;stroke-opacity:1"
       d="m 4.5,18 c -0.5,1 0,6 3,6 3,0 -0.5,-3 -0.5,-3 z"
       id="path2232"
       inkscape:connector-curvature="0" />
    <path
       style="fill:#d78d22;fill-opacity:1;fill-rule:evenodd;stroke:none;stroke-width:0.5px;stroke-linecap:butt;stroke-linejoin:miter;stroke-opacity:1"
       d="m 15,20 c 0.5,1 -1,4 -2.5,4 C 11,24 11,23 12.5,21 14,19 15,20 15,20 Z"
       id="path2234"
       inkscape:connector-curvature="0" />
    <path
       inkscape:connector-curvature="0"
       id="path2236"
       d="m 10,9 c 3,0 5,3.5 5,6.5 0,3 -2.5,5.5 -5.5,5.5 C 6.5,21 5,18.5 5,17 5,15.5 7,9 10,9 Z"
       style="fill:#aeaeae;fill-opacity:1;fill-rule:evenodd;stroke:none;stroke-width:0.5px;stroke-linecap:butt;stroke-linejoin:miter;stroke-opacity:1" />
    <path
       transform="scale(0.5)"
       style="fill:none;fill-rule:evenodd;stroke:#d78d22;stroke-width:2;stroke-linecap:butt;stroke-linejoin:miter;stroke-miterlimit:4;stroke-dasharray:none;stroke-opacity:1"
       d="M 14,18 31,35"
       id="path2238"
       inkscape:connector-curvature="0"
       clip-path="url(#clipPath2212)" />
    <path
       style="fill:none;fill-rule:evenodd;stroke:#d78d22;stroke-width:1;stroke-linecap:butt;stroke-linejoin:miter;stroke-miterlimit:4;stroke-dasharray:none;stroke-opacity:1"
       d="m 5.5,13.5 7,7"
       id="path2240"
       inkscape:connector-curvature="0" />
    <path
       transform="scale(0.5)"
       style="fill:none;fill-rule:evenodd;stroke:#d78d22;stroke-width:2;stroke-linecap:butt;stroke-linejoin:miter;stroke-miterlimit:4;stroke-dasharray:none;stroke-opacity:1"
       d="M 27,19 9,37"
       id="path2242"
       inkscape:connector-curvature="0"
       clip-path="url(#clipPath2208)" />
    <path
       transform="scale(0.5)"
       style="fill:none;fill-rule:evenodd;stroke:#d78d22;stroke-width:2;stroke-linecap:butt;stroke-linejoin:miter;stroke-miterlimit:4;stroke-dasharray:none;stroke-opacity:1"
       d="M 31,27 15,43"
       id="path2244"
       inkscape:connector-curvature="0"
       clip-path="url(#clipPath2204)" />
    <path
       style="fill:none;fill-rule:evenodd;stroke:#ffffff;stroke-width:1;stroke-linecap:round;stroke-linejoin:miter;stroke-miterlimit:4;stroke-dasharray:none;stroke-opacity:1"
       d="m 7.5,10 c -1.5,1.5 -3,6 -3,7 0,1 2,4.5 5,4.5 3,0 3,-2 6,-2"
       id="path2246"
       inkscape:connector-curvature="0"
       sodipodi:nodetypes="cssc" />
    <ellipse
       style="opacity:1;fill:#ffffff;fill-opacity:1;fill-rule:nonzero;stroke:none;stroke-width:1;stroke-linecap:round;stroke-linejoin:round;stroke-miterlimit:4;stroke-dasharray:none;stroke-opacity:1;paint-order:normal"
       id="ellipse2248"
       cx="4.5"
       cy="4"
       rx="1.5"
       ry="4" />
    <ellipse
       style="opacity:1;fill:#aeaeae;fill-opacity:1;fill-rule:nonzero;stroke:none;stroke-width:1;stroke-linecap:round;stroke-linejoin:round;stroke-miterlimit:4;stroke-dasharray:none;stroke-opacity:1;paint-order:normal"
       id="ellipse2250"
       cx="3.25"
       cy="4.5"
       rx="0.75"
       ry="2" />
    <circle
       style="opacity:1;fill:#aeaeae;fill-opacity:1;fill-rule:nonzero;stroke:none;stroke-width:1;stroke-linecap:round;stroke-linejoin:round;stroke-miterlimit:4;stroke-dasharray:none;stroke-opacity:1;paint-order:normal"
       id="circle2252"
       cx="1.5"
       cy="7.5"
       r="0.5" />
    <path
       inkscape:connector-curvature="0"
       id="path1589"
       d="m 12.49995,12.50005 c 1,0 1,1 1,1"
       style="fill:none;fill-rule:evenodd;stroke:#ffffff;stroke-width:1px;stroke-linecap:round;stroke-linejoin:miter;stroke-opacity:1" />
  </g>
</svg>
