<?xml version="1.0" encoding="UTF-8" standalone="no"?>
<!-- Created with Inkscape (http://www.inkscape.org/) -->

<svg
   xmlns:dc="http://purl.org/dc/elements/1.1/"
   xmlns:cc="http://creativecommons.org/ns#"
   xmlns:rdf="http://www.w3.org/1999/02/22-rdf-syntax-ns#"
   xmlns:svg="http://www.w3.org/2000/svg"
   xmlns="http://www.w3.org/2000/svg"
   xmlns:sodipodi="http://sodipodi.sourceforge.net/DTD/sodipodi-0.dtd"
   xmlns:inkscape="http://www.inkscape.org/namespaces/inkscape"
   width="16"
   height="16"
   viewBox="0 0 16 16"
   id="svg2"
   version="1.1"
   inkscape:version="0.91 r13725"
   sodipodi:docname="watercastlegroundr.svg">
  <defs
     id="defs4" />
  <sodipodi:namedview
     id="base"
     pagecolor="#ffffff"
     bordercolor="#666666"
     borderopacity="1.0"
     inkscape:pageopacity="0"
     inkscape:pageshadow="2"
     inkscape:zoom="31.678384"
     inkscape:cx="11.117943"
     inkscape:cy="4.6718269"
     inkscape:document-units="in"
     inkscape:current-layer="layer1"
     showgrid="true"
     units="px"
     inkscape:window-width="1871"
     inkscape:window-height="1061"
     inkscape:window-x="49"
     inkscape:window-y="0"
     inkscape:window-maximized="1"
     inkscape:object-nodes="true">
    <inkscape:grid
       type="xygrid"
       id="grid3463" />
  </sodipodi:namedview>
  <metadata
     id="metadata7">
    <rdf:RDF>
      <cc:Work
         rdf:about="">
        <dc:format>image/svg+xml</dc:format>
        <dc:type
           rdf:resource="http://purl.org/dc/dcmitype/StillImage" />
        <dc:title></dc:title>
      </cc:Work>
    </rdf:RDF>
  </metadata>
  <g
     inkscape:label="Layer 1"
     inkscape:groupmode="layer"
     id="layer1"
     transform="translate(0,-1036.3622)">
    <g
       id="g4193">
      <rect
         y="1045.3622"
         x="1"
         height="5"
         width="5"
         id="rect3472"
         style="fill:#109400;fill-opacity:1" />
      <path
         inkscape:connector-curvature="0"
         id="path3474"
         d="m 0,1051.3622 1,-1 5,0 0,-5 1,-1 0,7 z"
         style="fill:#000000;fill-opacity:1.0;fill-rule:evenodd;stroke:none;stroke-width:1px;stroke-linecap:butt;stroke-linejoin:miter;stroke-opacity:1" />
      <path
         inkscape:connector-curvature="0"
         id="path4276"
         d="m 0,1051.3622 1,-1 0,-5 5,0 1,-1 -7,0 z"
         style="fill:#bff9ad;fill-opacity:1;fill-rule:evenodd;stroke:none;stroke-width:1px;stroke-linecap:butt;stroke-linejoin:miter;stroke-opacity:1" />
    </g>
    <g
       id="g4198">
      <rect
         y="1045.3622"
         x="9"
         height="5"
         width="5"
         id="rect3472-6"
         style="fill:#109400;fill-opacity:1" />
      <path
         inkscape:connector-curvature="0"
         id="path3474-7"
         d="m 8,1051.3622 1,-1 5,0 0,-5 1,-1 0,7 z"
         style="fill:#000000;fill-opacity:1.0;fill-rule:evenodd;stroke:none;stroke-width:1px;stroke-linecap:butt;stroke-linejoin:miter;stroke-opacity:1" />
      <path
         inkscape:connector-curvature="0"
         id="path4276-3"
         d="m 8,1051.3622 1,-1 0,-5 5,0 1,-1 -7,0 z"
         style="fill:#bff9ad;fill-opacity:1;fill-rule:evenodd;stroke:none;stroke-width:1px;stroke-linecap:butt;stroke-linejoin:miter;stroke-opacity:1" />
    </g>
    <g
       id="g4183">
      <rect
         y="1037.3622"
         x="5"
         height="5"
         width="5"
         id="rect3472-6-6"
         style="fill:#109400;fill-opacity:1" />
      <path
         inkscape:connector-curvature="0"
         id="path3474-7-2"
         d="m 4,1043.3622 1,-1 5,0 0,-5 1,-1 0,7 z"
         style="fill:#000000;fill-opacity:1;fill-rule:evenodd;stroke:none;stroke-width:1px;stroke-linecap:butt;stroke-linejoin:miter;stroke-opacity:1" />
      <path
         inkscape:connector-curvature="0"
         id="path4276-3-1"
         d="m 4,1043.3622 1,-1 0,-5 5,0 1,-1 -7,0 z"
         style="fill:#bff9ad;fill-opacity:1;fill-rule:evenodd;stroke:none;stroke-width:1px;stroke-linecap:butt;stroke-linejoin:miter;stroke-opacity:1" />
    </g>
    <g
       id="g4188">
      <path
         inkscape:connector-curvature="0"
         id="path4385-7"
         d="m 12,1043.3622 1,-1 0,-5 1,0 1,-1 -3,0 z"
         style="fill:#bff9ad;fill-opacity:1;fill-rule:evenodd;stroke:none;stroke-width:1px;stroke-linecap:butt;stroke-linejoin:miter;stroke-opacity:1" />
      <path
         inkscape:connector-curvature="0"
         id="path4387-0"
         d="m 12,1043.3622 1,-1 1,0 0,-5 1,-1 0,7 z"
         style="fill:#000000;fill-opacity:1;fill-rule:evenodd;stroke:none;stroke-width:1px;stroke-linecap:butt;stroke-linejoin:miter;stroke-opacity:1" />
      <rect
         y="1037.3622"
         x="13"
         height="5"
         width="1"
         id="rect4389-9"
         style="fill:#109400;fill-opacity:1;stroke:none" />
    </g>
    <g
       id="g4178">
      <path
         inkscape:connector-curvature="0"
         id="path4344"
         d="m 0,1043.3622 0,-1 2,0 0,-5 1,-1 0,7 z"
         style="fill:#000000;fill-opacity:1.0;fill-rule:evenodd;stroke:none" />
      <rect
         y="1037.3622"
         x="0"
         height="5"
         width="2"
         id="rect4346"
         style="fill:#109400;fill-opacity:1;stroke:none" />
      <path
         inkscape:connector-curvature="0"
         id="path4348"
         d="m 0,1037.3622 2,0 1,-1 -3,0 z"
         style="fill:#bff9ad;fill-opacity:1;fill-rule:evenodd;stroke:none;stroke-width:1px;stroke-linecap:butt;stroke-linejoin:miter;stroke-opacity:1" />
    </g>
  </g>
</svg>
