<?xml version="1.0" encoding="UTF-8" standalone="no"?>
<!-- Created with Inkscape (http://www.inkscape.org/) -->

<svg
   xmlns:dc="http://purl.org/dc/elements/1.1/"
   xmlns:cc="http://creativecommons.org/ns#"
   xmlns:rdf="http://www.w3.org/1999/02/22-rdf-syntax-ns#"
   xmlns:svg="http://www.w3.org/2000/svg"
   xmlns="http://www.w3.org/2000/svg"
   xmlns:sodipodi="http://sodipodi.sourceforge.net/DTD/sodipodi-0.dtd"
   xmlns:inkscape="http://www.inkscape.org/namespaces/inkscape"
   width="112"
   height="52.1035"
   viewBox="0 0 16 0"
   id="svg2"
   version="1.1"
   inkscape:version="0.91 r13725"
   sodipodi:docname="hill.svg">
  <defs
     id="defs4">
    <clipPath
       id="clipPath4278"
       clipPathUnits="userSpaceOnUse">
      <rect
         y="1052.36"
         x="0"
         height="16"
         width="16"
         id="rect4280"
         style="fill:#ff0000;fill-opacity:1;stroke:none;stroke-width:0.70700002;stroke-linecap:round;stroke-linejoin:miter;stroke-miterlimit:4;stroke-dasharray:none" />
    </clipPath>
    <clipPath
       id="clipPath4220"
       clipPathUnits="userSpaceOnUse">
      <rect
         y="1020.36"
         x="0"
         height="32.000008"
         width="32"
         id="rect4222"
         style="fill:#ff0000;fill-opacity:1;stroke:none;stroke-width:0.70700002;stroke-linecap:square;stroke-linejoin:miter;stroke-miterlimit:4;stroke-dasharray:none" />
    </clipPath>
    <clipPath
       id="clipPath4278-0"
       clipPathUnits="userSpaceOnUse">
      <rect
         y="1052.36"
         x="0"
         height="16"
         width="16"
         id="rect4280-6"
         style="fill:#ff0000;fill-opacity:1;stroke:none;stroke-width:0.70700002;stroke-linecap:round;stroke-linejoin:miter;stroke-miterlimit:4;stroke-dasharray:none" />
    </clipPath>
    <clipPath
       id="clipPath4278-02"
       clipPathUnits="userSpaceOnUse">
      <rect
         y="1052.36"
         x="0"
         height="16"
         width="16"
         id="rect4280-3"
         style="fill:#ff0000;fill-opacity:1;stroke:none;stroke-width:0.70700002;stroke-linecap:round;stroke-linejoin:miter;stroke-miterlimit:4;stroke-dasharray:none" />
    </clipPath>
    <clipPath
       id="clipPath4278-7"
       clipPathUnits="userSpaceOnUse">
      <rect
         y="1052.36"
         x="0"
         height="16"
         width="16"
         id="rect4280-36"
         style="fill:#ff0000;fill-opacity:1;stroke:none;stroke-width:0.70700002;stroke-linecap:round;stroke-linejoin:miter;stroke-miterlimit:4;stroke-dasharray:none" />
    </clipPath>
    <clipPath
       id="clipPath4278-78"
       clipPathUnits="userSpaceOnUse">
      <rect
         y="1052.36"
         x="0"
         height="16"
         width="16"
         id="rect4280-4"
         style="fill:#ff0000;fill-opacity:1;stroke:none;stroke-width:0.70700002;stroke-linecap:round;stroke-linejoin:miter;stroke-miterlimit:4;stroke-dasharray:none" />
    </clipPath>
    <clipPath
       id="clipPath4278-2"
       clipPathUnits="userSpaceOnUse">
      <rect
         y="1052.36"
         x="0"
         height="16"
         width="16"
         id="rect4280-0"
         style="fill:#ff0000;fill-opacity:1;stroke:none;stroke-width:0.70700002;stroke-linecap:round;stroke-linejoin:miter;stroke-miterlimit:4;stroke-dasharray:none" />
    </clipPath>
    <clipPath
       id="clipPath4278-9"
       clipPathUnits="userSpaceOnUse">
      <rect
         y="1052.36"
         x="0"
         height="16"
         width="16"
         id="rect4280-37"
         style="fill:#ff0000;fill-opacity:1;stroke:none;stroke-width:0.70700002;stroke-linecap:round;stroke-linejoin:miter;stroke-miterlimit:4;stroke-dasharray:none" />
    </clipPath>
    <clipPath
       id="clipPath4278-8"
       clipPathUnits="userSpaceOnUse">
      <rect
         y="1052.36"
         x="0"
         height="16"
         width="16"
         id="rect4280-68"
         style="fill:#ff0000;fill-opacity:1;stroke:none;stroke-width:0.70700002;stroke-linecap:round;stroke-linejoin:miter;stroke-miterlimit:4;stroke-dasharray:none" />
    </clipPath>
    <clipPath
       id="clipPath4251"
       clipPathUnits="userSpaceOnUse">
      <rect
         y="1050.36"
         x="-2"
         height="2.0000005"
         width="2"
         id="rect4253"
         style="fill:#ff0000;fill-opacity:1;stroke:none;stroke-width:0.70700002;stroke-linecap:square;stroke-linejoin:miter;stroke-miterlimit:4;stroke-dasharray:none" />
    </clipPath>
    <clipPath
       id="clipPath4278-04"
       clipPathUnits="userSpaceOnUse">
      <rect
         y="1052.36"
         x="0"
         height="16"
         width="16"
         id="rect4280-8"
         style="fill:#ff0000;fill-opacity:1;stroke:none;stroke-width:0.70700002;stroke-linecap:round;stroke-linejoin:miter;stroke-miterlimit:4;stroke-dasharray:none" />
    </clipPath>
  </defs>
  <sodipodi:namedview
     id="base"
     pagecolor="#8c6231"
     bordercolor="#666666"
     borderopacity="1.0"
     inkscape:pageopacity="0"
     inkscape:pageshadow="2"
     inkscape:zoom="4"
     inkscape:cx="70.830402"
     inkscape:cy="71.912907"
     inkscape:document-units="in"
     inkscape:current-layer="layer1"
     showgrid="true"
     units="px"
     inkscape:window-width="1200"
     inkscape:window-height="958"
     inkscape:window-x="630"
     inkscape:window-y="80"
     inkscape:window-maximized="0"
     inkscape:snap-bbox="true"
     inkscape:object-nodes="true"
     inkscape:bbox-paths="false"
     inkscape:bbox-nodes="true"
     showguides="true"
     inkscape:guide-bbox="true"
     borderlayer="false"
     inkscape:showpageshadow="true"
     showborder="true"
     fit-margin-top="0"
     fit-margin-left="0"
     fit-margin-right="0"
     fit-margin-bottom="0">
    <inkscape:grid
       type="xygrid"
       id="grid4133"
       originx="112"
       originy="5.8622061e-06" />
  </sodipodi:namedview>
  <metadata
     id="metadata7">
    <rdf:RDF>
      <cc:Work
         rdf:about="">
        <dc:format>image/svg+xml</dc:format>
        <dc:type
           rdf:resource="http://purl.org/dc/dcmitype/StillImage" />
        <dc:title></dc:title>
      </cc:Work>
    </rdf:RDF>
  </metadata>
  <g
     inkscape:groupmode="layer"
     id="layer4"
     inkscape:label="Layer 4"
     transform="translate(112,-79.896504)" />
  <g
     inkscape:groupmode="layer"
     id="layer3"
     inkscape:label="Layer 3"
     transform="translate(112,-79.896504)" />
  <g
     inkscape:groupmode="layer"
     id="layer2"
     inkscape:label="Layer 2"
     transform="translate(112,-79.896504)" />
  <g
     inkscape:label="Layer 1"
     inkscape:groupmode="layer"
     id="layer1"
     transform="translate(112,-1100.2565)">
    <g
       transform="matrix(0.5,0,0,0.49999973,-16,626.17919)"
       id="g4694">
      <rect
         style="opacity:1;fill:#9c4a00;fill-opacity:1;stroke:none;stroke-width:2;stroke-linecap:square;stroke-linejoin:miter;stroke-miterlimit:4;stroke-dasharray:none;stroke-opacity:1"
         id="rect4696"
         width="32"
         height="32"
         x="0"
         y="1020.3622" />
      <path
         style="fill:none;fill-opacity:1;fill-rule:evenodd;stroke:#ffcec6;stroke-width:2;stroke-linecap:square;stroke-linejoin:miter;stroke-miterlimit:4;stroke-dasharray:none;stroke-opacity:1"
         d="m 2,1043.3622 c 4,4 11,4 11,4"
         id="path4698"
         inkscape:connector-curvature="0"
         sodipodi:nodetypes="cc" />
      <path
         style="opacity:1;fill:none;fill-rule:evenodd;stroke:#000000;stroke-width:2;stroke-linecap:butt;stroke-linejoin:miter;stroke-miterlimit:4;stroke-dasharray:none;stroke-opacity:1"
         d="M 15.902728,24.537913 C 11.902728,26.537913 15,31 15,31"
         id="path4700"
         inkscape:connector-curvature="0"
         sodipodi:nodetypes="cc"
         transform="translate(0,1020.3622)" />
      <path
         style="fill:none;fill-rule:evenodd;stroke:#000000;stroke-width:2;stroke-linecap:butt;stroke-linejoin:miter;stroke-miterlimit:4;stroke-dasharray:none;stroke-opacity:1"
         d="m 30,1031.3622 c -8,0 -9.12132,-3.3258 -9.12132,-3.3258"
         id="path4702"
         inkscape:connector-curvature="0"
         sodipodi:nodetypes="cc" />
      <path
         sodipodi:nodetypes="cc"
         inkscape:connector-curvature="0"
         id="path4704"
         d="M 30,13 C 22,13 20.87868,9.6742 20.87868,9.6742"
         style="fill:none;fill-rule:evenodd;stroke:#ffcec6;stroke-width:2;stroke-linecap:butt;stroke-linejoin:miter;stroke-miterlimit:4;stroke-dasharray:none;stroke-opacity:1"
         transform="translate(0,1020.3622)" />
      <path
         style="opacity:1;fill:none;fill-rule:evenodd;stroke:#000000;stroke-width:2;stroke-linecap:square;stroke-linejoin:miter;stroke-miterlimit:4;stroke-dasharray:none;stroke-opacity:1"
         d="m 19,1022.3622 c 0,12 0.46967,21 -4.53033,23 -5.0000001,2 -12.46967,-4 -12.46967,-4"
         id="path4706"
         inkscape:connector-curvature="0"
         sodipodi:nodetypes="csc" />
      <path
         style="fill:none;fill-rule:evenodd;stroke:#ffcec6;stroke-width:2;stroke-linecap:butt;stroke-linejoin:miter;stroke-miterlimit:4;stroke-dasharray:none;stroke-opacity:1"
         d="m 21,1022.3622 c 0,18 -0.837722,19.8377 -4,23 -3,3 -0.176777,6.1161 -0.176777,6.1161"
         id="path4708"
         inkscape:connector-curvature="0"
         sodipodi:nodetypes="csc" />
      <path
         style="opacity:1;fill:#ffcec6;fill-opacity:1;fill-rule:evenodd;stroke:none;stroke-width:1px;stroke-linecap:butt;stroke-linejoin:miter;stroke-opacity:1"
         d="m 0,1020.3622 32,0 -2,2 -28,0 0,28 -2,2 z"
         id="path4710"
         inkscape:connector-curvature="0" />
      <path
         style="opacity:1;fill:#000000;fill-opacity:1;fill-rule:evenodd;stroke:none;stroke-width:1px;stroke-linecap:butt;stroke-linejoin:miter;stroke-opacity:1"
         d="m 0,1052.3622 2,-2 26,0 2,-2 0,-26 2,-2 0,32 z"
         id="path4712"
         inkscape:connector-curvature="0" />
      <path
         style="opacity:1;fill:#9c4a00;fill-opacity:1;fill-rule:evenodd;stroke:none;stroke-width:1px;stroke-linecap:butt;stroke-linejoin:miter;stroke-opacity:1"
         d="m 32,1048.3622 -4,4 4,0 z"
         id="path4714"
         inkscape:connector-curvature="0" />
      <path
         style="fill:#9c4a00;fill-opacity:1;fill-rule:evenodd;stroke:none;stroke-width:1px;stroke-linecap:butt;stroke-linejoin:miter;stroke-opacity:1"
         d="m 0,1021.3622 2,2 1,-1 -2,-2 -1,0 z"
         id="path4716"
         inkscape:connector-curvature="0" />
    </g>
    <g
       transform="matrix(0.5,0,0,0.49999973,-32,626.17919)"
       id="g4718">
      <rect
         style="opacity:1;fill:#9c4a00;fill-opacity:1;stroke:none;stroke-width:2;stroke-linecap:square;stroke-linejoin:miter;stroke-miterlimit:4;stroke-dasharray:none;stroke-opacity:1"
         id="rect4720"
         width="32"
         height="32"
         x="0"
         y="1020.3622" />
      <path
         style="fill:none;fill-opacity:1;fill-rule:evenodd;stroke:#ffcec6;stroke-width:2;stroke-linecap:square;stroke-linejoin:miter;stroke-miterlimit:4;stroke-dasharray:none;stroke-opacity:1"
         d="m 2,1043.3622 c 4,4 11,4 11,4"
         id="path4722"
         inkscape:connector-curvature="0"
         sodipodi:nodetypes="cc" />
      <path
         style="opacity:1;fill:none;fill-rule:evenodd;stroke:#000000;stroke-width:2;stroke-linecap:butt;stroke-linejoin:miter;stroke-miterlimit:4;stroke-dasharray:none;stroke-opacity:1"
         d="M 15.902728,24.537913 C 11.902728,26.537913 15,31 15,31"
         id="path4724"
         inkscape:connector-curvature="0"
         sodipodi:nodetypes="cc"
         transform="translate(0,1020.3622)" />
      <path
         style="fill:none;fill-rule:evenodd;stroke:#000000;stroke-width:2;stroke-linecap:butt;stroke-linejoin:miter;stroke-miterlimit:4;stroke-dasharray:none;stroke-opacity:1"
         d="m 30,1031.3622 c -8,0 -9.12132,-3.3258 -9.12132,-3.3258"
         id="path4726"
         inkscape:connector-curvature="0"
         sodipodi:nodetypes="cc" />
      <path
         sodipodi:nodetypes="cc"
         inkscape:connector-curvature="0"
         id="path4728"
         d="M 30,13 C 22,13 20.87868,9.6742 20.87868,9.6742"
         style="fill:none;fill-rule:evenodd;stroke:#ffcec6;stroke-width:2;stroke-linecap:butt;stroke-linejoin:miter;stroke-miterlimit:4;stroke-dasharray:none;stroke-opacity:1"
         transform="translate(0,1020.3622)" />
      <path
         style="opacity:1;fill:none;fill-rule:evenodd;stroke:#000000;stroke-width:2;stroke-linecap:square;stroke-linejoin:miter;stroke-miterlimit:4;stroke-dasharray:none;stroke-opacity:1"
         d="m 19,1022.3622 c 0,12 0.46967,21 -4.53033,23 -5.0000001,2 -12.46967,-4 -12.46967,-4"
         id="path4730"
         inkscape:connector-curvature="0"
         sodipodi:nodetypes="csc" />
      <path
         style="fill:none;fill-rule:evenodd;stroke:#ffcec6;stroke-width:2;stroke-linecap:butt;stroke-linejoin:miter;stroke-miterlimit:4;stroke-dasharray:none;stroke-opacity:1"
         d="m 21,1022.3622 c 0,18 -0.837722,19.8377 -4,23 -3,3 -0.176777,6.1161 -0.176777,6.1161"
         id="path4732"
         inkscape:connector-curvature="0"
         sodipodi:nodetypes="csc" />
      <path
         style="opacity:1;fill:#ffcec6;fill-opacity:1;fill-rule:evenodd;stroke:none;stroke-width:1px;stroke-linecap:butt;stroke-linejoin:miter;stroke-opacity:1"
         d="m 0,1020.3622 32,0 -2,2 -28,0 0,28 -2,2 z"
         id="path4734"
         inkscape:connector-curvature="0" />
      <path
         style="opacity:1;fill:#000000;fill-opacity:1;fill-rule:evenodd;stroke:none;stroke-width:1px;stroke-linecap:butt;stroke-linejoin:miter;stroke-opacity:1"
         d="m 0,1052.3622 2,-2 26,0 2,-2 0,-26 2,-2 0,32 z"
         id="path4736"
         inkscape:connector-curvature="0" />
      <path
         style="opacity:1;fill:#9c4a00;fill-opacity:1;fill-rule:evenodd;stroke:none;stroke-width:1px;stroke-linecap:butt;stroke-linejoin:miter;stroke-opacity:1"
         d="m 32,1048.3622 -4,4 4,0 z"
         id="path4738"
         inkscape:connector-curvature="0" />
      <path
         style="fill:#9c4a00;fill-opacity:1;fill-rule:evenodd;stroke:none;stroke-width:1px;stroke-linecap:butt;stroke-linejoin:miter;stroke-opacity:1"
         d="m 0,1021.3622 2,2 1,-1 -2,-2 -1,0 z"
         id="path4740"
         inkscape:connector-curvature="0" />
    </g>
    <g
       id="g4742"
       transform="matrix(0.5,0,0,0.49999973,-48,626.17919)">
      <rect
         y="1020.3622"
         x="0"
         height="32"
         width="32"
         id="rect4744"
         style="opacity:1;fill:#9c4a00;fill-opacity:1;stroke:none;stroke-width:2;stroke-linecap:square;stroke-linejoin:miter;stroke-miterlimit:4;stroke-dasharray:none;stroke-opacity:1" />
      <path
         sodipodi:nodetypes="cc"
         inkscape:connector-curvature="0"
         id="path4746"
         d="m 2,1043.3622 c 4,4 11,4 11,4"
         style="fill:none;fill-opacity:1;fill-rule:evenodd;stroke:#ffcec6;stroke-width:2;stroke-linecap:square;stroke-linejoin:miter;stroke-miterlimit:4;stroke-dasharray:none;stroke-opacity:1" />
      <path
         transform="translate(0,1020.3622)"
         sodipodi:nodetypes="cc"
         inkscape:connector-curvature="0"
         id="path4748"
         d="M 15.902728,24.537913 C 11.902728,26.537913 15,31 15,31"
         style="opacity:1;fill:none;fill-rule:evenodd;stroke:#000000;stroke-width:2;stroke-linecap:butt;stroke-linejoin:miter;stroke-miterlimit:4;stroke-dasharray:none;stroke-opacity:1" />
      <path
         sodipodi:nodetypes="cc"
         inkscape:connector-curvature="0"
         id="path4750"
         d="m 30,1031.3622 c -8,0 -9.12132,-3.3258 -9.12132,-3.3258"
         style="fill:none;fill-rule:evenodd;stroke:#000000;stroke-width:2;stroke-linecap:butt;stroke-linejoin:miter;stroke-miterlimit:4;stroke-dasharray:none;stroke-opacity:1" />
      <path
         transform="translate(0,1020.3622)"
         style="fill:none;fill-rule:evenodd;stroke:#ffcec6;stroke-width:2;stroke-linecap:butt;stroke-linejoin:miter;stroke-miterlimit:4;stroke-dasharray:none;stroke-opacity:1"
         d="M 30,13 C 22,13 20.87868,9.6742 20.87868,9.6742"
         id="path4752"
         inkscape:connector-curvature="0"
         sodipodi:nodetypes="cc" />
      <path
         sodipodi:nodetypes="csc"
         inkscape:connector-curvature="0"
         id="path4754"
         d="m 19,1022.3622 c 0,12 0.46967,21 -4.53033,23 -5.0000001,2 -12.46967,-4 -12.46967,-4"
         style="opacity:1;fill:none;fill-rule:evenodd;stroke:#000000;stroke-width:2;stroke-linecap:square;stroke-linejoin:miter;stroke-miterlimit:4;stroke-dasharray:none;stroke-opacity:1" />
      <path
         sodipodi:nodetypes="csc"
         inkscape:connector-curvature="0"
         id="path4756"
         d="m 21,1022.3622 c 0,18 -0.837722,19.8377 -4,23 -3,3 -0.176777,6.1161 -0.176777,6.1161"
         style="fill:none;fill-rule:evenodd;stroke:#ffcec6;stroke-width:2;stroke-linecap:butt;stroke-linejoin:miter;stroke-miterlimit:4;stroke-dasharray:none;stroke-opacity:1" />
      <path
         inkscape:connector-curvature="0"
         id="path4758"
         d="m 0,1020.3622 32,0 -2,2 -28,0 0,28 -2,2 z"
         style="opacity:1;fill:#ffcec6;fill-opacity:1;fill-rule:evenodd;stroke:none;stroke-width:1px;stroke-linecap:butt;stroke-linejoin:miter;stroke-opacity:1" />
      <path
         inkscape:connector-curvature="0"
         id="path4760"
         d="m 0,1052.3622 2,-2 26,0 2,-2 0,-26 2,-2 0,32 z"
         style="opacity:1;fill:#000000;fill-opacity:1;fill-rule:evenodd;stroke:none;stroke-width:1px;stroke-linecap:butt;stroke-linejoin:miter;stroke-opacity:1" />
      <path
         inkscape:connector-curvature="0"
         id="path4762"
         d="m 32,1048.3622 -4,4 4,0 z"
         style="opacity:1;fill:#9c4a00;fill-opacity:1;fill-rule:evenodd;stroke:none;stroke-width:1px;stroke-linecap:butt;stroke-linejoin:miter;stroke-opacity:1" />
      <path
         inkscape:connector-curvature="0"
         id="path4764"
         d="m 0,1021.3622 2,2 1,-1 -2,-2 -1,0 z"
         style="fill:#9c4a00;fill-opacity:1;fill-rule:evenodd;stroke:none;stroke-width:1px;stroke-linecap:butt;stroke-linejoin:miter;stroke-opacity:1" />
    </g>
    <g
       transform="matrix(0.5,0,0,0.49999973,-64,626.17919)"
       id="g4766">
      <rect
         style="opacity:1;fill:#9c4a00;fill-opacity:1;stroke:none;stroke-width:2;stroke-linecap:square;stroke-linejoin:miter;stroke-miterlimit:4;stroke-dasharray:none;stroke-opacity:1"
         id="rect4768"
         width="32"
         height="32"
         x="0"
         y="1020.3622" />
      <path
         style="fill:none;fill-opacity:1;fill-rule:evenodd;stroke:#ffcec6;stroke-width:2;stroke-linecap:square;stroke-linejoin:miter;stroke-miterlimit:4;stroke-dasharray:none;stroke-opacity:1"
         d="m 2,1043.3622 c 4,4 11,4 11,4"
         id="path4770"
         inkscape:connector-curvature="0"
         sodipodi:nodetypes="cc" />
      <path
         style="opacity:1;fill:none;fill-rule:evenodd;stroke:#000000;stroke-width:2;stroke-linecap:butt;stroke-linejoin:miter;stroke-miterlimit:4;stroke-dasharray:none;stroke-opacity:1"
         d="M 15.902728,24.537913 C 11.902728,26.537913 15,31 15,31"
         id="path4772"
         inkscape:connector-curvature="0"
         sodipodi:nodetypes="cc"
         transform="translate(0,1020.3622)" />
      <path
         style="fill:none;fill-rule:evenodd;stroke:#000000;stroke-width:2;stroke-linecap:butt;stroke-linejoin:miter;stroke-miterlimit:4;stroke-dasharray:none;stroke-opacity:1"
         d="m 30,1031.3622 c -8,0 -9.12132,-3.3258 -9.12132,-3.3258"
         id="path4774"
         inkscape:connector-curvature="0"
         sodipodi:nodetypes="cc" />
      <path
         sodipodi:nodetypes="cc"
         inkscape:connector-curvature="0"
         id="path4776"
         d="M 30,13 C 22,13 20.87868,9.6742 20.87868,9.6742"
         style="fill:none;fill-rule:evenodd;stroke:#ffcec6;stroke-width:2;stroke-linecap:butt;stroke-linejoin:miter;stroke-miterlimit:4;stroke-dasharray:none;stroke-opacity:1"
         transform="translate(0,1020.3622)" />
      <path
         style="opacity:1;fill:none;fill-rule:evenodd;stroke:#000000;stroke-width:2;stroke-linecap:square;stroke-linejoin:miter;stroke-miterlimit:4;stroke-dasharray:none;stroke-opacity:1"
         d="m 19,1022.3622 c 0,12 0.46967,21 -4.53033,23 -5.0000001,2 -12.46967,-4 -12.46967,-4"
         id="path4778"
         inkscape:connector-curvature="0"
         sodipodi:nodetypes="csc" />
      <path
         style="fill:none;fill-rule:evenodd;stroke:#ffcec6;stroke-width:2;stroke-linecap:butt;stroke-linejoin:miter;stroke-miterlimit:4;stroke-dasharray:none;stroke-opacity:1"
         d="m 21,1022.3622 c 0,18 -0.837722,19.8377 -4,23 -3,3 -0.176777,6.1161 -0.176777,6.1161"
         id="path4780"
         inkscape:connector-curvature="0"
         sodipodi:nodetypes="csc" />
      <path
         style="opacity:1;fill:#ffcec6;fill-opacity:1;fill-rule:evenodd;stroke:none;stroke-width:1px;stroke-linecap:butt;stroke-linejoin:miter;stroke-opacity:1"
         d="m 0,1020.3622 32,0 -2,2 -28,0 0,28 -2,2 z"
         id="path4782"
         inkscape:connector-curvature="0" />
      <path
         style="opacity:1;fill:#000000;fill-opacity:1;fill-rule:evenodd;stroke:none;stroke-width:1px;stroke-linecap:butt;stroke-linejoin:miter;stroke-opacity:1"
         d="m 0,1052.3622 2,-2 26,0 2,-2 0,-26 2,-2 0,32 z"
         id="path4784"
         inkscape:connector-curvature="0" />
      <path
         style="opacity:1;fill:#9c4a00;fill-opacity:1;fill-rule:evenodd;stroke:none;stroke-width:1px;stroke-linecap:butt;stroke-linejoin:miter;stroke-opacity:1"
         d="m 32,1048.3622 -4,4 4,0 z"
         id="path4786"
         inkscape:connector-curvature="0" />
      <path
         style="fill:#9c4a00;fill-opacity:1;fill-rule:evenodd;stroke:none;stroke-width:1px;stroke-linecap:butt;stroke-linejoin:miter;stroke-opacity:1"
         d="m 0,1021.3622 2,2 1,-1 -2,-2 -1,0 z"
         id="path4788"
         inkscape:connector-curvature="0" />
    </g>
    <g
       id="g4790"
       transform="matrix(0.5,0,0,0.49999973,-80,626.17919)">
      <rect
         y="1020.3622"
         x="0"
         height="32"
         width="32"
         id="rect4792"
         style="opacity:1;fill:#9c4a00;fill-opacity:1;stroke:none;stroke-width:2;stroke-linecap:square;stroke-linejoin:miter;stroke-miterlimit:4;stroke-dasharray:none;stroke-opacity:1" />
      <path
         sodipodi:nodetypes="cc"
         inkscape:connector-curvature="0"
         id="path4794"
         d="m 2,1043.3622 c 4,4 11,4 11,4"
         style="fill:none;fill-opacity:1;fill-rule:evenodd;stroke:#ffcec6;stroke-width:2;stroke-linecap:square;stroke-linejoin:miter;stroke-miterlimit:4;stroke-dasharray:none;stroke-opacity:1" />
      <path
         transform="translate(0,1020.3622)"
         sodipodi:nodetypes="cc"
         inkscape:connector-curvature="0"
         id="path4796"
         d="M 15.902728,24.537913 C 11.902728,26.537913 15,31 15,31"
         style="opacity:1;fill:none;fill-rule:evenodd;stroke:#000000;stroke-width:2;stroke-linecap:butt;stroke-linejoin:miter;stroke-miterlimit:4;stroke-dasharray:none;stroke-opacity:1" />
      <path
         sodipodi:nodetypes="cc"
         inkscape:connector-curvature="0"
         id="path4798"
         d="m 30,1031.3622 c -8,0 -9.12132,-3.3258 -9.12132,-3.3258"
         style="fill:none;fill-rule:evenodd;stroke:#000000;stroke-width:2;stroke-linecap:butt;stroke-linejoin:miter;stroke-miterlimit:4;stroke-dasharray:none;stroke-opacity:1" />
      <path
         transform="translate(0,1020.3622)"
         style="fill:none;fill-rule:evenodd;stroke:#ffcec6;stroke-width:2;stroke-linecap:butt;stroke-linejoin:miter;stroke-miterlimit:4;stroke-dasharray:none;stroke-opacity:1"
         d="M 30,13 C 22,13 20.87868,9.6742 20.87868,9.6742"
         id="path4800"
         inkscape:connector-curvature="0"
         sodipodi:nodetypes="cc" />
      <path
         sodipodi:nodetypes="csc"
         inkscape:connector-curvature="0"
         id="path4802"
         d="m 19,1022.3622 c 0,12 0.46967,21 -4.53033,23 -5.0000001,2 -12.46967,-4 -12.46967,-4"
         style="opacity:1;fill:none;fill-rule:evenodd;stroke:#000000;stroke-width:2;stroke-linecap:square;stroke-linejoin:miter;stroke-miterlimit:4;stroke-dasharray:none;stroke-opacity:1" />
      <path
         sodipodi:nodetypes="csc"
         inkscape:connector-curvature="0"
         id="path4804"
         d="m 21,1022.3622 c 0,18 -0.837722,19.8377 -4,23 -3,3 -0.176777,6.1161 -0.176777,6.1161"
         style="fill:none;fill-rule:evenodd;stroke:#ffcec6;stroke-width:2;stroke-linecap:butt;stroke-linejoin:miter;stroke-miterlimit:4;stroke-dasharray:none;stroke-opacity:1" />
      <path
         inkscape:connector-curvature="0"
         id="path4806"
         d="m 0,1020.3622 32,0 -2,2 -28,0 0,28 -2,2 z"
         style="opacity:1;fill:#ffcec6;fill-opacity:1;fill-rule:evenodd;stroke:none;stroke-width:1px;stroke-linecap:butt;stroke-linejoin:miter;stroke-opacity:1" />
      <path
         inkscape:connector-curvature="0"
         id="path4808"
         d="m 0,1052.3622 2,-2 26,0 2,-2 0,-26 2,-2 0,32 z"
         style="opacity:1;fill:#000000;fill-opacity:1;fill-rule:evenodd;stroke:none;stroke-width:1px;stroke-linecap:butt;stroke-linejoin:miter;stroke-opacity:1" />
      <path
         inkscape:connector-curvature="0"
         id="path4810"
         d="m 32,1048.3622 -4,4 4,0 z"
         style="opacity:1;fill:#9c4a00;fill-opacity:1;fill-rule:evenodd;stroke:none;stroke-width:1px;stroke-linecap:butt;stroke-linejoin:miter;stroke-opacity:1" />
      <path
         inkscape:connector-curvature="0"
         id="path4812"
         d="m 0,1021.3622 2,2 1,-1 -2,-2 -1,0 z"
         style="fill:#9c4a00;fill-opacity:1;fill-rule:evenodd;stroke:none;stroke-width:1px;stroke-linecap:butt;stroke-linejoin:miter;stroke-opacity:1" />
    </g>
    <g
       id="g4814"
       transform="matrix(0.5,0,0,0.49999973,-96,626.17919)">
      <rect
         y="1020.3622"
         x="0"
         height="32"
         width="32"
         id="rect4816"
         style="opacity:1;fill:#9c4a00;fill-opacity:1;stroke:none;stroke-width:2;stroke-linecap:square;stroke-linejoin:miter;stroke-miterlimit:4;stroke-dasharray:none;stroke-opacity:1" />
      <path
         sodipodi:nodetypes="cc"
         inkscape:connector-curvature="0"
         id="path4818"
         d="m 2,1043.3622 c 4,4 11,4 11,4"
         style="fill:none;fill-opacity:1;fill-rule:evenodd;stroke:#ffcec6;stroke-width:2;stroke-linecap:square;stroke-linejoin:miter;stroke-miterlimit:4;stroke-dasharray:none;stroke-opacity:1" />
      <path
         transform="translate(0,1020.3622)"
         sodipodi:nodetypes="cc"
         inkscape:connector-curvature="0"
         id="path4820"
         d="M 15.902728,24.537913 C 11.902728,26.537913 15,31 15,31"
         style="opacity:1;fill:none;fill-rule:evenodd;stroke:#000000;stroke-width:2;stroke-linecap:butt;stroke-linejoin:miter;stroke-miterlimit:4;stroke-dasharray:none;stroke-opacity:1" />
      <path
         sodipodi:nodetypes="cc"
         inkscape:connector-curvature="0"
         id="path4822"
         d="m 30,1031.3622 c -8,0 -9.12132,-3.3258 -9.12132,-3.3258"
         style="fill:none;fill-rule:evenodd;stroke:#000000;stroke-width:2;stroke-linecap:butt;stroke-linejoin:miter;stroke-miterlimit:4;stroke-dasharray:none;stroke-opacity:1" />
      <path
         transform="translate(0,1020.3622)"
         style="fill:none;fill-rule:evenodd;stroke:#ffcec6;stroke-width:2;stroke-linecap:butt;stroke-linejoin:miter;stroke-miterlimit:4;stroke-dasharray:none;stroke-opacity:1"
         d="M 30,13 C 22,13 20.87868,9.6742 20.87868,9.6742"
         id="path4824"
         inkscape:connector-curvature="0"
         sodipodi:nodetypes="cc" />
      <path
         sodipodi:nodetypes="csc"
         inkscape:connector-curvature="0"
         id="path4826"
         d="m 19,1022.3622 c 0,12 0.46967,21 -4.53033,23 -5.0000001,2 -12.46967,-4 -12.46967,-4"
         style="opacity:1;fill:none;fill-rule:evenodd;stroke:#000000;stroke-width:2;stroke-linecap:square;stroke-linejoin:miter;stroke-miterlimit:4;stroke-dasharray:none;stroke-opacity:1" />
      <path
         sodipodi:nodetypes="csc"
         inkscape:connector-curvature="0"
         id="path4828"
         d="m 21,1022.3622 c 0,18 -0.837722,19.8377 -4,23 -3,3 -0.176777,6.1161 -0.176777,6.1161"
         style="fill:none;fill-rule:evenodd;stroke:#ffcec6;stroke-width:2;stroke-linecap:butt;stroke-linejoin:miter;stroke-miterlimit:4;stroke-dasharray:none;stroke-opacity:1" />
      <path
         inkscape:connector-curvature="0"
         id="path4830"
         d="m 0,1020.3622 32,0 -2,2 -28,0 0,28 -2,2 z"
         style="opacity:1;fill:#ffcec6;fill-opacity:1;fill-rule:evenodd;stroke:none;stroke-width:1px;stroke-linecap:butt;stroke-linejoin:miter;stroke-opacity:1" />
      <path
         inkscape:connector-curvature="0"
         id="path4832"
         d="m 0,1052.3622 2,-2 26,0 2,-2 0,-26 2,-2 0,32 z"
         style="opacity:1;fill:#000000;fill-opacity:1;fill-rule:evenodd;stroke:none;stroke-width:1px;stroke-linecap:butt;stroke-linejoin:miter;stroke-opacity:1" />
      <path
         inkscape:connector-curvature="0"
         id="path4834"
         d="m 32,1048.3622 -4,4 4,0 z"
         style="opacity:1;fill:#9c4a00;fill-opacity:1;fill-rule:evenodd;stroke:none;stroke-width:1px;stroke-linecap:butt;stroke-linejoin:miter;stroke-opacity:1" />
      <path
         inkscape:connector-curvature="0"
         id="path4836"
         d="m 0,1021.3622 2,2 1,-1 -2,-2 -1,0 z"
         style="fill:#9c4a00;fill-opacity:1;fill-rule:evenodd;stroke:none;stroke-width:1px;stroke-linecap:butt;stroke-linejoin:miter;stroke-opacity:1" />
    </g>
    <g
       transform="matrix(0.5,0,0,0.49999973,-112,626.17919)"
       id="g4838">
      <rect
         style="opacity:1;fill:#9c4a00;fill-opacity:1;stroke:none;stroke-width:2;stroke-linecap:square;stroke-linejoin:miter;stroke-miterlimit:4;stroke-dasharray:none;stroke-opacity:1"
         id="rect4840"
         width="32"
         height="32"
         x="0"
         y="1020.3622" />
      <path
         style="fill:none;fill-opacity:1;fill-rule:evenodd;stroke:#ffcec6;stroke-width:2;stroke-linecap:square;stroke-linejoin:miter;stroke-miterlimit:4;stroke-dasharray:none;stroke-opacity:1"
         d="m 2,1043.3622 c 4,4 11,4 11,4"
         id="path4842"
         inkscape:connector-curvature="0"
         sodipodi:nodetypes="cc" />
      <path
         style="opacity:1;fill:none;fill-rule:evenodd;stroke:#000000;stroke-width:2;stroke-linecap:butt;stroke-linejoin:miter;stroke-miterlimit:4;stroke-dasharray:none;stroke-opacity:1"
         d="M 15.902728,24.537913 C 11.902728,26.537913 15,31 15,31"
         id="path4844"
         inkscape:connector-curvature="0"
         sodipodi:nodetypes="cc"
         transform="translate(0,1020.3622)" />
      <path
         style="fill:none;fill-rule:evenodd;stroke:#000000;stroke-width:2;stroke-linecap:butt;stroke-linejoin:miter;stroke-miterlimit:4;stroke-dasharray:none;stroke-opacity:1"
         d="m 30,1031.3622 c -8,0 -9.12132,-3.3258 -9.12132,-3.3258"
         id="path4846"
         inkscape:connector-curvature="0"
         sodipodi:nodetypes="cc" />
      <path
         sodipodi:nodetypes="cc"
         inkscape:connector-curvature="0"
         id="path4848"
         d="M 30,13 C 22,13 20.87868,9.6742 20.87868,9.6742"
         style="fill:none;fill-rule:evenodd;stroke:#ffcec6;stroke-width:2;stroke-linecap:butt;stroke-linejoin:miter;stroke-miterlimit:4;stroke-dasharray:none;stroke-opacity:1"
         transform="translate(0,1020.3622)" />
      <path
         style="opacity:1;fill:none;fill-rule:evenodd;stroke:#000000;stroke-width:2;stroke-linecap:square;stroke-linejoin:miter;stroke-miterlimit:4;stroke-dasharray:none;stroke-opacity:1"
         d="m 19,1022.3622 c 0,12 0.46967,21 -4.53033,23 -5.0000001,2 -12.46967,-4 -12.46967,-4"
         id="path4850"
         inkscape:connector-curvature="0"
         sodipodi:nodetypes="csc" />
      <path
         style="fill:none;fill-rule:evenodd;stroke:#ffcec6;stroke-width:2;stroke-linecap:butt;stroke-linejoin:miter;stroke-miterlimit:4;stroke-dasharray:none;stroke-opacity:1"
         d="m 21,1022.3622 c 0,18 -0.837722,19.8377 -4,23 -3,3 -0.176777,6.1161 -0.176777,6.1161"
         id="path4852"
         inkscape:connector-curvature="0"
         sodipodi:nodetypes="csc" />
      <path
         style="opacity:1;fill:#ffcec6;fill-opacity:1;fill-rule:evenodd;stroke:none;stroke-width:1px;stroke-linecap:butt;stroke-linejoin:miter;stroke-opacity:1"
         d="m 0,1020.3622 32,0 -2,2 -28,0 0,28 -2,2 z"
         id="path4854"
         inkscape:connector-curvature="0" />
      <path
         style="opacity:1;fill:#000000;fill-opacity:1;fill-rule:evenodd;stroke:none;stroke-width:1px;stroke-linecap:butt;stroke-linejoin:miter;stroke-opacity:1"
         d="m 0,1052.3622 2,-2 26,0 2,-2 0,-26 2,-2 0,32 z"
         id="path4856"
         inkscape:connector-curvature="0" />
      <path
         style="opacity:1;fill:#9c4a00;fill-opacity:1;fill-rule:evenodd;stroke:none;stroke-width:1px;stroke-linecap:butt;stroke-linejoin:miter;stroke-opacity:1"
         d="m 32,1048.3622 -4,4 4,0 z"
         id="path4858"
         inkscape:connector-curvature="0" />
      <path
         style="fill:#9c4a00;fill-opacity:1;fill-rule:evenodd;stroke:none;stroke-width:1px;stroke-linecap:butt;stroke-linejoin:miter;stroke-opacity:1"
         d="m 0,1021.3622 2,2 1,-1 -2,-2 -1,0 z"
         id="path4860"
         inkscape:connector-curvature="0" />
    </g>
    <g
       id="g4917"
       transform="translate(-96,1120.36)">
      <g
         transform="translate(0,-16)"
         inkscape:label="Layer 2"
         id="layer2-5" />
      <g
         transform="translate(0,-1036.36)"
         id="layer1-6"
         inkscape:label="Layer 1">
        <g
           transform="matrix(0.5,0,0,0.5,0,526.18)"
           id="g6209">
          <path
             style="fill:#109400;fill-opacity:1;fill-rule:evenodd;stroke:none;stroke-width:1px;stroke-linecap:butt;stroke-linejoin:miter;stroke-opacity:1"
             d="m 32,1020.36 -32,32 32,0 z"
             id="path4970"
             inkscape:connector-curvature="0" />
          <path
             style="fill:#000000;fill-opacity:1;fill-rule:evenodd;stroke:none;stroke-width:1px;stroke-linecap:butt;stroke-linejoin:miter;stroke-opacity:1"
             d="m 32,1020.36 0,1 -31,31 -1,0 0,-1 31,-31 z"
             id="path4972"
             inkscape:connector-curvature="0" />
        </g>
      </g>
    </g>
    <g
       transform="translate(-80,1104.36)"
       id="g4924">
      <g
         id="g4926"
         inkscape:label="Layer 2"
         transform="translate(0,-16)" />
      <g
         inkscape:label="Layer 1"
         id="g4928"
         transform="translate(0,-1036.36)">
        <g
           id="g4930"
           transform="matrix(0.5,0,0,0.5,0,526.18)">
          <path
             inkscape:connector-curvature="0"
             id="path4932"
             d="m 32,1020.36 -32,32 32,0 z"
             style="fill:#109400;fill-opacity:1;fill-rule:evenodd;stroke:none;stroke-width:1px;stroke-linecap:butt;stroke-linejoin:miter;stroke-opacity:1" />
          <path
             inkscape:connector-curvature="0"
             id="path4934"
             d="m 32,1020.36 0,1 -31,31 -1,0 0,-1 31,-31 z"
             style="fill:#000000;fill-opacity:1;fill-rule:evenodd;stroke:none;stroke-width:1px;stroke-linecap:butt;stroke-linejoin:miter;stroke-opacity:1" />
        </g>
      </g>
    </g>
    <g
       id="g4936"
       transform="matrix(-1,0,0,1,-32,1104.36)">
      <g
         transform="translate(0,-16)"
         inkscape:label="Layer 2"
         id="g4938" />
      <g
         transform="translate(0,-1036.36)"
         id="g4940"
         inkscape:label="Layer 1">
        <g
           transform="matrix(0.5,0,0,0.5,0,526.18)"
           id="g4942">
          <path
             style="fill:#109400;fill-opacity:1;fill-rule:evenodd;stroke:none;stroke-width:1px;stroke-linecap:butt;stroke-linejoin:miter;stroke-opacity:1"
             d="m 32,1020.36 -32,32 32,0 z"
             id="path4944"
             inkscape:connector-curvature="0" />
          <path
             style="fill:#000000;fill-opacity:1;fill-rule:evenodd;stroke:none;stroke-width:1px;stroke-linecap:butt;stroke-linejoin:miter;stroke-opacity:1"
             d="m 32,1020.36 0,1 -31,31 -1,0 0,-1 31,-31 z"
             id="path4946"
             inkscape:connector-curvature="0" />
        </g>
      </g>
    </g>
    <g
       transform="matrix(-1,0,0,1,-16,1120.36)"
       id="g4960">
      <g
         id="g4962"
         inkscape:label="Layer 2"
         transform="translate(0,-16)" />
      <g
         inkscape:label="Layer 1"
         id="g4964"
         transform="translate(0,-1036.36)">
        <g
           id="g4966"
           transform="matrix(0.5,0,0,0.5,0,526.18)">
          <path
             inkscape:connector-curvature="0"
             id="path4968"
             d="m 32,1020.36 -32,32 32,0 z"
             style="fill:#109400;fill-opacity:1;fill-rule:evenodd;stroke:none;stroke-width:1px;stroke-linecap:butt;stroke-linejoin:miter;stroke-opacity:1" />
          <path
             inkscape:connector-curvature="0"
             id="path4971"
             d="m 32,1020.36 0,1 -31,31 -1,0 0,-1 31,-31 z"
             style="fill:#000000;fill-opacity:1;fill-rule:evenodd;stroke:none;stroke-width:1px;stroke-linecap:butt;stroke-linejoin:miter;stroke-opacity:1" />
        </g>
      </g>
    </g>
    <g
       id="g5024"
       transform="translate(-64,1088.36)">
      <g
         transform="translate(0,-16)"
         inkscape:label="Layer 2"
         id="layer2-0" />
      <g
         transform="translate(0,-1036.36)"
         id="layer1-9"
         inkscape:label="Layer 1">
        <path
           transform="matrix(0.5,0,0,0.49999987,0,526.18014)"
           clip-path="url(#clipPath4220)"
           inkscape:connector-curvature="0"
           id="path4163"
           d="m 0,1052.36 c 10,-10 22,-10 32,0"
           style="fill:#109400;fill-opacity:1;fill-rule:evenodd;stroke:#000000;stroke-width:1.41400015;stroke-linecap:square;stroke-linejoin:miter;stroke-miterlimit:4;stroke-dasharray:none;stroke-opacity:1" />
      </g>
    </g>
    <g
       id="g6976"
       transform="translate(-64,1104.36)">
      <g
         transform="translate(0,-16)"
         inkscape:label="Layer 2"
         id="layer2-3" />
      <g
         transform="translate(0,-1036.36)"
         id="layer1-1"
         inkscape:label="Layer 1">
        <path
           transform="translate(0,-15.999985)"
           clip-path="url(#clipPath4278-7)"
           sodipodi:nodetypes="cssc"
           inkscape:connector-curvature="0"
           id="path4274"
           d="m -20,1072.36 20,-20 c 5,-5 11,-5 16,0 5.522681,5.5227 20,20 20,20"
           style="fill:#109400;fill-opacity:1;fill-rule:evenodd;stroke:#000000;stroke-width:0.70700002;stroke-linecap:round;stroke-linejoin:miter;stroke-miterlimit:4;stroke-dasharray:none;stroke-opacity:1" />
      </g>
    </g>
    <g
       id="g7022"
       transform="translate(-64,1120.36)">
      <g
         transform="translate(0,-16)"
         inkscape:label="Layer 2"
         id="layer2-6" />
      <g
         transform="translate(0,-1036.36)"
         id="layer1-10"
         inkscape:label="Layer 1">
        <rect
           transform="scale(-1,1)"
           y="1036.36"
           x="-16"
           height="15.999986"
           width="16"
           id="rect6923"
           style="fill:#109400;fill-opacity:1;stroke:none;stroke-width:0.70700002;stroke-linecap:round;stroke-linejoin:miter;stroke-miterlimit:4;stroke-dasharray:none" />
      </g>
    </g>
    <g
       id="g7080"
       transform="translate(-48,1120.36)">
      <g
         transform="translate(0,-16)"
         inkscape:label="Layer 2"
         id="layer2-54" />
      <g
         transform="translate(0,-1036.36)"
         id="layer1-7"
         inkscape:label="Layer 1">
        <rect
           transform="scale(-1,1)"
           y="1036.36"
           x="-16"
           height="15.999986"
           width="16"
           id="rect6923-6"
           style="fill:#109400;fill-opacity:1;stroke:none;stroke-width:0.70700002;stroke-linecap:round;stroke-linejoin:miter;stroke-miterlimit:4;stroke-dasharray:none" />
        <path
           inkscape:connector-curvature="0"
           id="path6925"
           d="m 15.5,1036.36 0.5,0.5 0,-0.5 z"
           style="fill:#000000;fill-opacity:1;fill-rule:evenodd;stroke:none;stroke-width:1px;stroke-linecap:butt;stroke-linejoin:miter;stroke-opacity:1" />
      </g>
    </g>
    <g
       id="g7139"
       transform="translate(-80,1120.36)">
      <g
         transform="translate(0,-16)"
         inkscape:label="Layer 2"
         id="layer2-547" />
      <g
         transform="translate(0,-1036.36)"
         id="layer1-4"
         inkscape:label="Layer 1">
        <rect
           y="1036.36"
           x="0"
           height="15.999986"
           width="16"
           id="rect6923-4"
           style="fill:#109400;fill-opacity:1;stroke:none;stroke-width:0.70700002;stroke-linecap:round;stroke-linejoin:miter;stroke-miterlimit:4;stroke-dasharray:none" />
        <path
           inkscape:connector-curvature="0"
           id="path6925-3"
           d="m 0.5,1036.36 -0.5,0.5 0,-0.5 z"
           style="fill:#000000;fill-opacity:1;fill-rule:evenodd;stroke:none;stroke-width:1px;stroke-linecap:butt;stroke-linejoin:miter;stroke-opacity:1" />
      </g>
    </g>
    <g
       id="g7196"
       transform="translate(-96,1104.36)">
      <g
         transform="translate(0,-16)"
         inkscape:label="Layer 2"
         id="layer2-1" />
      <g
         transform="translate(0,-1036.36)"
         id="layer1-49"
         inkscape:label="Layer 1">
        <path
           inkscape:connector-curvature="0"
           id="path6858"
           d="m 16,1051.86 -0.5,0.5 0.5,0 z"
           style="fill:#000000;fill-opacity:1;fill-rule:evenodd;stroke:none;stroke-width:1px;stroke-linecap:butt;stroke-linejoin:miter;stroke-opacity:1" />
      </g>
    </g>
    <g
       transform="translate(-112,1120.36)"
       id="g7201">
      <g
         id="g7203"
         inkscape:label="Layer 2"
         transform="translate(0,-16)" />
      <g
         inkscape:label="Layer 1"
         id="g7205"
         transform="translate(0,-1036.36)">
        <path
           style="fill:#000000;fill-opacity:1;fill-rule:evenodd;stroke:none;stroke-width:1px;stroke-linecap:butt;stroke-linejoin:miter;stroke-opacity:1"
           d="m 16,1051.86 -0.5,0.5 0.5,0 z"
           id="path7207"
           inkscape:connector-curvature="0" />
      </g>
    </g>
    <g
       id="g7209"
       transform="matrix(-1,0,0,1,0,1120.36)">
      <g
         transform="translate(0,-16)"
         inkscape:label="Layer 2"
         id="g7211" />
      <g
         transform="translate(0,-1036.36)"
         id="g7213"
         inkscape:label="Layer 1">
        <path
           inkscape:connector-curvature="0"
           id="path7215"
           d="m 16,1051.86 -0.5,0.5 0.5,0 z"
           style="fill:#000000;fill-opacity:1;fill-rule:evenodd;stroke:none;stroke-width:1px;stroke-linecap:butt;stroke-linejoin:miter;stroke-opacity:1" />
      </g>
    </g>
    <g
       transform="matrix(-1,0,0,1,-16,1104.36)"
       id="g7217">
      <g
         id="g7219"
         inkscape:label="Layer 2"
         transform="translate(0,-16)" />
      <g
         inkscape:label="Layer 1"
         id="g7221"
         transform="translate(0,-1036.36)">
        <path
           style="fill:#000000;fill-opacity:1;fill-rule:evenodd;stroke:none;stroke-width:1px;stroke-linecap:butt;stroke-linejoin:miter;stroke-opacity:1"
           d="m 16,1051.86 -0.5,0.5 0.5,0 z"
           id="path7223"
           inkscape:connector-curvature="0" />
      </g>
    </g>
    <g
       id="g7458"
       transform="translate(-80,1088.36)">
      <g
         transform="translate(0,-16)"
         inkscape:label="Layer 2"
         id="layer2-2" />
      <g
         transform="translate(0,-1036.36)"
         id="layer1-66"
         inkscape:label="Layer 1">
        <path
           transform="matrix(0.5,0,0,0.49999987,16,526.18014)"
           clip-path="url(#clipPath4251)"
           inkscape:connector-curvature="0"
           id="path4163-4"
           d="m 0,1052.36 c 10,-10 22,-10 32,0"
           style="fill:#00a600;fill-opacity:1;fill-rule:evenodd;stroke:#000000;stroke-width:1.41400015;stroke-linecap:square;stroke-linejoin:miter;stroke-miterlimit:4;stroke-dasharray:none;stroke-opacity:1" />
      </g>
    </g>
    <g
       transform="matrix(-1,0,0,1,-32,1088.36)"
       id="g7463">
      <g
         id="g7465"
         inkscape:label="Layer 2"
         transform="translate(0,-16)" />
      <g
         inkscape:label="Layer 1"
         id="g7467"
         transform="translate(0,-1036.36)">
        <path
           style="fill:#00a600;fill-opacity:1;fill-rule:evenodd;stroke:#000000;stroke-width:1.41400015;stroke-linecap:square;stroke-linejoin:miter;stroke-miterlimit:4;stroke-dasharray:none;stroke-opacity:1"
           d="m 0,1052.36 c 10,-10 22,-10 32,0"
           id="path7469"
           inkscape:connector-curvature="0"
           clip-path="url(#clipPath4251)"
           transform="matrix(0.5,0,0,0.49999987,16,526.18014)" />
      </g>
    </g>
    <g
       id="g7687"
       transform="translate(-56,1104.36)">
      <g
         transform="translate(0,-24)"
         inkscape:label="Layer 2"
         id="layer2-27" />
      <g
         transform="translate(0,-1044.36)"
         id="layer1-2"
         inkscape:label="Layer 1">
        <ellipse
           ry="2.5"
           rx="1.5"
           cy="1046.86"
           cx="5.5"
           id="path7144"
           style="fill:#000000;fill-opacity:1;stroke:none;stroke-width:0.70700002;stroke-linecap:round;stroke-linejoin:miter;stroke-miterlimit:4;stroke-dasharray:none" />
        <ellipse
           ry="2"
           rx="1"
           cy="1050.36"
           cx="2"
           id="path7148"
           style="fill:#000000;fill-opacity:1;stroke:none;stroke-width:0.70700002;stroke-linecap:round;stroke-linejoin:miter;stroke-miterlimit:4;stroke-dasharray:none" />
      </g>
    </g>
    <g
       transform="translate(-72,1120.36)"
       id="g7705">
      <g
         id="g7707"
         inkscape:label="Layer 2"
         transform="translate(0,-24)" />
      <g
         inkscape:label="Layer 1"
         id="g7709"
         transform="translate(0,-1044.36)">
        <ellipse
           style="fill:#000000;fill-opacity:1;stroke:none;stroke-width:0.70700002;stroke-linecap:round;stroke-linejoin:miter;stroke-miterlimit:4;stroke-dasharray:none"
           id="ellipse7711"
           cx="5.5"
           cy="1046.86"
           rx="1.5"
           ry="2.5" />
        <ellipse
           style="fill:#000000;fill-opacity:1;stroke:none;stroke-width:0.70700002;stroke-linecap:round;stroke-linejoin:miter;stroke-miterlimit:4;stroke-dasharray:none"
           id="ellipse7713"
           cx="2"
           cy="1050.36"
           rx="1"
           ry="2" />
      </g>
    </g>
    <g
       transform="translate(-48,1120.36)"
       id="g7715">
      <g
         id="g7717"
         inkscape:label="Layer 2"
         transform="translate(0,-24)" />
      <g
         inkscape:label="Layer 1"
         id="g7719"
         transform="translate(0,-1044.36)">
        <ellipse
           style="fill:#000000;fill-opacity:1;stroke:none;stroke-width:0.70700002;stroke-linecap:round;stroke-linejoin:miter;stroke-miterlimit:4;stroke-dasharray:none"
           id="ellipse7721"
           cx="5.5"
           cy="1046.86"
           rx="1.5"
           ry="2.5" />
        <ellipse
           style="fill:#000000;fill-opacity:1;stroke:none;stroke-width:0.70700002;stroke-linecap:round;stroke-linejoin:miter;stroke-miterlimit:4;stroke-dasharray:none"
           id="ellipse7723"
           cx="2"
           cy="1050.36"
           rx="1"
           ry="2" />
      </g>
    </g>
  </g>
</svg>
