<?xml version="1.0" encoding="UTF-8" standalone="no"?>
<!-- Created with Inkscape (http://www.inkscape.org/) -->

<svg
   xmlns:dc="http://purl.org/dc/elements/1.1/"
   xmlns:cc="http://creativecommons.org/ns#"
   xmlns:rdf="http://www.w3.org/1999/02/22-rdf-syntax-ns#"
   xmlns:svg="http://www.w3.org/2000/svg"
   xmlns="http://www.w3.org/2000/svg"
   xmlns:sodipodi="http://sodipodi.sourceforge.net/DTD/sodipodi-0.dtd"
   xmlns:inkscape="http://www.inkscape.org/namespaces/inkscape"
   id="svg4187"
   version="1.1"
   inkscape:version="0.91 r13725"
   width="16"
   height="16"
   viewBox="0 0 16 16"
   sodipodi:docname="mushroomstemsvg.svg">
  <metadata
     id="metadata4193">
    <rdf:RDF>
      <cc:Work
         rdf:about="">
        <dc:format>image/svg+xml</dc:format>
        <dc:type
           rdf:resource="http://purl.org/dc/dcmitype/StillImage" />
        <dc:title></dc:title>
      </cc:Work>
    </rdf:RDF>
  </metadata>
  <defs
     id="defs4191">
    <clipPath
       clipPathUnits="userSpaceOnUse"
       id="clipPath4310">
      <rect
         style="opacity:1;fill:#9c4a00;fill-opacity:1;fill-rule:nonzero;stroke:none;stroke-width:2;stroke-linecap:round;stroke-linejoin:round;stroke-miterlimit:4;stroke-dasharray:none;stroke-opacity:1"
         id="rect4312"
         width="32"
         height="32"
         x="0"
         y="32" />
    </clipPath>
    <clipPath
       clipPathUnits="userSpaceOnUse"
       id="clipPath4322">
      <rect
         y="32"
         x="0"
         height="32"
         width="32"
         id="rect4324"
         style="opacity:1;fill:#9c4a00;fill-opacity:1;fill-rule:nonzero;stroke:none;stroke-width:2;stroke-linecap:round;stroke-linejoin:round;stroke-miterlimit:4;stroke-dasharray:none;stroke-opacity:1" />
    </clipPath>
    <clipPath
       clipPathUnits="userSpaceOnUse"
       id="clipPath4326">
      <rect
         y="32"
         x="0"
         height="32"
         width="32"
         id="rect4328"
         style="opacity:1;fill:#9c4a00;fill-opacity:1;fill-rule:nonzero;stroke:none;stroke-width:2;stroke-linecap:round;stroke-linejoin:round;stroke-miterlimit:4;stroke-dasharray:none;stroke-opacity:1" />
    </clipPath>
  </defs>
  <sodipodi:namedview
     pagecolor="#ffffff"
     bordercolor="#666666"
     borderopacity="1"
     objecttolerance="10"
     gridtolerance="10"
     guidetolerance="10"
     inkscape:pageopacity="0"
     inkscape:pageshadow="2"
     inkscape:window-width="1871"
     inkscape:window-height="1061"
     id="namedview4189"
     showgrid="true"
     inkscape:snap-bbox="true"
     inkscape:bbox-nodes="true"
     inkscape:zoom="11.2875"
     inkscape:cx="19.92082"
     inkscape:cy="30.831851"
     inkscape:window-x="49"
     inkscape:window-y="0"
     inkscape:window-maximized="1"
     inkscape:current-layer="svg4187">
    <inkscape:grid
       type="xygrid"
       id="grid4197" />
  </sodipodi:namedview>
  <g
     id="g4330"
     transform="matrix(0.5,0,0,0.5,0,8)">
    <g
       transform="translate(0,-48)"
       clip-path="url(#clipPath4326)"
       id="g4316">
      <path
         style="opacity:1;fill:#ffcec7;fill-opacity:1;fill-rule:evenodd;stroke:none;stroke-width:2;stroke-linecap:butt;stroke-linejoin:miter;stroke-miterlimit:4;stroke-dasharray:none;stroke-opacity:1"
         d="m 6,49 c -2,3 -5,6 -5,9 0,3 1,7 4,7 3,0 19,0 22,0 3,0 4,-4 4,-7 0,-3 -3,-6 -5,-9"
         id="path4225"
         inkscape:connector-curvature="0" />
      <path
         inkscape:connector-curvature="0"
         id="path4227"
         d="m 21,49 c 2,3 5,6 5,9 0,3 -10,4 -11,4 -1,0 -13,0 -13,0 l 2,3 25,0 2,-6 -2,-5 -3,-5 z"
         style="fill:#9c4a00;fill-opacity:1;fill-rule:evenodd;stroke:none;stroke-width:1px;stroke-linecap:butt;stroke-linejoin:miter;stroke-opacity:1" />
      <path
         inkscape:connector-curvature="0"
         id="path4229"
         d="m 6,49 c -2,3 -5,6 -5,9 0,3 1,7 4,7 3,0 19,0 22,0 3,0 4,-4 4,-7 0,-3 -3,-6 -5,-9"
         style="opacity:1;fill:none;fill-opacity:1;fill-rule:evenodd;stroke:#000000;stroke-width:2;stroke-linecap:butt;stroke-linejoin:miter;stroke-miterlimit:4;stroke-dasharray:none;stroke-opacity:1" />
    </g>
    <g
       transform="translate(0,-48)"
       id="g4277">
      <path
         inkscape:connector-curvature="0"
         id="path4207"
         d="m 6,33 c -2,3 -5,6 -5,9 0,3 1,7 4,7 3,0 19,0 22,0 3,0 4,-4 4,-7 0,-3 -3,-6 -5,-9"
         style="opacity:1;fill:#ffcec7;fill-opacity:1;fill-rule:evenodd;stroke:none;stroke-width:2;stroke-linecap:butt;stroke-linejoin:miter;stroke-miterlimit:4;stroke-dasharray:none;stroke-opacity:1" />
      <path
         style="fill:#9c4a00;fill-opacity:1;fill-rule:evenodd;stroke:none;stroke-width:1px;stroke-linecap:butt;stroke-linejoin:miter;stroke-opacity:1"
         d="m 21,33 c 2,3 5,6 5,9 0,3 -10,4 -11,4 -1,0 -13,0 -13,0 l 2,3 25,0 2,-6 -2,-5 -3,-5 z"
         id="path4205"
         inkscape:connector-curvature="0" />
      <path
         style="opacity:1;fill:none;fill-opacity:1;fill-rule:evenodd;stroke:#000000;stroke-width:2;stroke-linecap:butt;stroke-linejoin:miter;stroke-miterlimit:4;stroke-dasharray:none;stroke-opacity:1"
         d="m 6,33 c -2,3 -5,6 -5,9 0,3 1,7 4,7 3,0 19,0 22,0 3,0 4,-4 4,-7 0,-3 -3,-6 -5,-9"
         id="path4199"
         inkscape:connector-curvature="0" />
    </g>
    <path
       transform="translate(0,-48)"
       clip-path="url(#clipPath4322)"
       sodipodi:nodetypes="cssc"
       inkscape:connector-curvature="0"
       id="path4257"
       d="m 1,26 c 0,3 1,7 4,7 l 22,0 c 3,0 4,-4 4,-7"
       style="opacity:1;fill:none;fill-opacity:1;fill-rule:evenodd;stroke:#000000;stroke-width:2;stroke-linecap:butt;stroke-linejoin:miter;stroke-miterlimit:4;stroke-dasharray:none;stroke-opacity:1" />
  </g>
</svg>
