<?xml version="1.0" encoding="UTF-8" standalone="no"?>
<!-- Created with Inkscape (http://www.inkscape.org/) -->

<svg
   xmlns:dc="http://purl.org/dc/elements/1.1/"
   xmlns:cc="http://creativecommons.org/ns#"
   xmlns:rdf="http://www.w3.org/1999/02/22-rdf-syntax-ns#"
   xmlns:svg="http://www.w3.org/2000/svg"
   xmlns="http://www.w3.org/2000/svg"
   xmlns:sodipodi="http://sodipodi.sourceforge.net/DTD/sodipodi-0.dtd"
   xmlns:inkscape="http://www.inkscape.org/namespaces/inkscape"
   id="svg4187"
   version="1.1"
   inkscape:version="0.91 r13725"
   width="16"
   height="16"
   viewBox="0 0 16 16"
   sodipodi:docname="treeplatformstem.svg">
  <metadata
     id="metadata4193">
    <rdf:RDF>
      <cc:Work
         rdf:about="">
        <dc:format>image/svg+xml</dc:format>
        <dc:type
           rdf:resource="http://purl.org/dc/dcmitype/StillImage" />
        <dc:title></dc:title>
      </cc:Work>
    </rdf:RDF>
  </metadata>
  <defs
     id="defs4191">
    <clipPath
       clipPathUnits="userSpaceOnUse"
       id="clipPath4363">
      <rect
         style="opacity:1;fill:#00ff00;fill-opacity:1;fill-rule:nonzero;stroke:none;stroke-width:2;stroke-linecap:round;stroke-linejoin:round;stroke-miterlimit:4;stroke-dasharray:none;stroke-opacity:1"
         id="rect4365"
         width="30"
         height="6"
         x="-53"
         y="-19" />
    </clipPath>
    <clipPath
       clipPathUnits="userSpaceOnUse"
       id="clipPath4387">
      <rect
         style="opacity:1;fill:#00ffbf;fill-opacity:1;fill-rule:nonzero;stroke:none;stroke-width:2;stroke-linecap:round;stroke-linejoin:round;stroke-miterlimit:4;stroke-dasharray:none;stroke-opacity:1"
         id="rect4389"
         width="79"
         height="19"
         x="-73"
         y="-31" />
    </clipPath>
    <clipPath
       clipPathUnits="userSpaceOnUse"
       id="clipPath7010">
      <rect
         style="opacity:1;fill:#9d4b00;fill-opacity:1;fill-rule:nonzero;stroke:none;stroke-width:2;stroke-linecap:round;stroke-linejoin:round;stroke-miterlimit:4;stroke-dasharray:none;stroke-opacity:1"
         id="rect7012"
         width="32"
         height="31.636795"
         x="0"
         y="0" />
    </clipPath>
    <clipPath
       clipPathUnits="userSpaceOnUse"
       id="clipPath7014">
      <rect
         style="opacity:1;fill:#9d4b00;fill-opacity:1;fill-rule:nonzero;stroke:none;stroke-width:2;stroke-linecap:round;stroke-linejoin:round;stroke-miterlimit:4;stroke-dasharray:none;stroke-opacity:1"
         id="rect7016"
         width="32"
         height="31.636795"
         x="0"
         y="0" />
    </clipPath>
    <clipPath
       clipPathUnits="userSpaceOnUse"
       id="clipPath7018">
      <rect
         style="opacity:1;fill:#9d4b00;fill-opacity:1;fill-rule:nonzero;stroke:none;stroke-width:2;stroke-linecap:round;stroke-linejoin:round;stroke-miterlimit:4;stroke-dasharray:none;stroke-opacity:1"
         id="rect7020"
         width="32"
         height="31.636795"
         x="0"
         y="0" />
    </clipPath>
    <clipPath
       clipPathUnits="userSpaceOnUse"
       id="clipPath7022">
      <rect
         style="opacity:1;fill:#9d4b00;fill-opacity:1;fill-rule:nonzero;stroke:none;stroke-width:2;stroke-linecap:round;stroke-linejoin:round;stroke-miterlimit:4;stroke-dasharray:none;stroke-opacity:1"
         id="rect7024"
         width="32"
         height="31.636795"
         x="0"
         y="0" />
    </clipPath>
    <clipPath
       clipPathUnits="userSpaceOnUse"
       id="clipPath7026">
      <rect
         style="opacity:1;fill:#9d4b00;fill-opacity:1;fill-rule:nonzero;stroke:none;stroke-width:2;stroke-linecap:round;stroke-linejoin:round;stroke-miterlimit:4;stroke-dasharray:none;stroke-opacity:1"
         id="rect7028"
         width="32"
         height="31.636795"
         x="0"
         y="0" />
    </clipPath>
    <clipPath
       clipPathUnits="userSpaceOnUse"
       id="clipPath7030">
      <rect
         style="opacity:1;fill:#9d4b00;fill-opacity:1;fill-rule:nonzero;stroke:none;stroke-width:2;stroke-linecap:round;stroke-linejoin:round;stroke-miterlimit:4;stroke-dasharray:none;stroke-opacity:1"
         id="rect7032"
         width="32"
         height="31.636795"
         x="0"
         y="0" />
    </clipPath>
    <clipPath
       clipPathUnits="userSpaceOnUse"
       id="clipPath7034">
      <rect
         style="opacity:1;fill:#9d4b00;fill-opacity:1;fill-rule:nonzero;stroke:none;stroke-width:2;stroke-linecap:round;stroke-linejoin:round;stroke-miterlimit:4;stroke-dasharray:none;stroke-opacity:1"
         id="rect7036"
         width="32"
         height="31.636795"
         x="0"
         y="0" />
    </clipPath>
    <clipPath
       clipPathUnits="userSpaceOnUse"
       id="clipPath7038">
      <rect
         style="opacity:1;fill:#9d4b00;fill-opacity:1;fill-rule:nonzero;stroke:none;stroke-width:2;stroke-linecap:round;stroke-linejoin:round;stroke-miterlimit:4;stroke-dasharray:none;stroke-opacity:1"
         id="rect7040"
         width="32"
         height="31.636795"
         x="0"
         y="0" />
    </clipPath>
    <clipPath
       clipPathUnits="userSpaceOnUse"
       id="clipPath7042">
      <rect
         style="opacity:1;fill:#9d4b00;fill-opacity:1;fill-rule:nonzero;stroke:none;stroke-width:2;stroke-linecap:round;stroke-linejoin:round;stroke-miterlimit:4;stroke-dasharray:none;stroke-opacity:1"
         id="rect7044"
         width="16"
         height="16"
         x="0"
         y="0" />
    </clipPath>
    <clipPath
       clipPathUnits="userSpaceOnUse"
       id="clipPath7046">
      <rect
         style="opacity:1;fill:#9d4b00;fill-opacity:1;fill-rule:nonzero;stroke:none;stroke-width:2;stroke-linecap:round;stroke-linejoin:round;stroke-miterlimit:4;stroke-dasharray:none;stroke-opacity:1"
         id="rect7048"
         width="16"
         height="16"
         x="0"
         y="0" />
    </clipPath>
    <clipPath
       clipPathUnits="userSpaceOnUse"
       id="clipPath7050">
      <rect
         style="opacity:1;fill:#9d4b00;fill-opacity:1;fill-rule:nonzero;stroke:none;stroke-width:2;stroke-linecap:round;stroke-linejoin:round;stroke-miterlimit:4;stroke-dasharray:none;stroke-opacity:1"
         id="rect7052"
         width="16"
         height="16"
         x="0"
         y="0" />
    </clipPath>
  </defs>
  <sodipodi:namedview
     pagecolor="#ffffff"
     bordercolor="#666666"
     borderopacity="1"
     objecttolerance="10"
     gridtolerance="10"
     guidetolerance="10"
     inkscape:pageopacity="0"
     inkscape:pageshadow="2"
     inkscape:window-width="1871"
     inkscape:window-height="1061"
     id="namedview4189"
     showgrid="true"
     inkscape:snap-smooth-nodes="false"
     inkscape:object-nodes="true"
     inkscape:snap-global="true"
     inkscape:snap-bbox="true"
     inkscape:bbox-nodes="false"
     inkscape:zoom="11.313709"
     inkscape:cx="-11.977157"
     inkscape:cy="17.926615"
     inkscape:window-x="49"
     inkscape:window-y="0"
     inkscape:window-maximized="1"
     inkscape:current-layer="svg4187">
    <inkscape:grid
       type="xygrid"
       id="grid4197" />
  </sodipodi:namedview>
  <rect
     y="0"
     x="0"
     height="16"
     width="16"
     id="rect7002"
     style="opacity:1;fill:#9d4b00;fill-opacity:1;fill-rule:nonzero;stroke:none;stroke-width:2;stroke-linecap:round;stroke-linejoin:round;stroke-miterlimit:4;stroke-dasharray:none;stroke-opacity:1" />
  <rect
     style="opacity:1;fill:#ffcec7;fill-opacity:1;fill-rule:nonzero;stroke:none;stroke-width:2;stroke-linecap:round;stroke-linejoin:round;stroke-miterlimit:4;stroke-dasharray:none;stroke-opacity:1"
     id="rect7004"
     width="1"
     height="1"
     x="15"
     y="0" />
  <rect
     style="opacity:1;fill:#ffcec7;fill-opacity:1;fill-rule:nonzero;stroke:none;stroke-width:2;stroke-linecap:round;stroke-linejoin:round;stroke-miterlimit:4;stroke-dasharray:none;stroke-opacity:1"
     id="rect7006"
     width="1"
     height="1"
     x="0"
     y="0" />
  <path
     style="fill:none;fill-rule:evenodd;stroke:#ffcec7;stroke-width:1.00572383;stroke-linecap:butt;stroke-linejoin:miter;stroke-miterlimit:4;stroke-dasharray:none;stroke-opacity:1"
     d="m -2,12.137766 c 1.5,1.01148 2,1.01148 2,4.551662"
     id="path6950"
     inkscape:connector-curvature="0"
     sodipodi:nodetypes="cc"
     clip-path="url(#clipPath7050)" />
  <path
     clip-path="url(#clipPath7046)"
     sodipodi:nodetypes="cc"
     inkscape:connector-curvature="0"
     id="path6948"
     d="m 14,12.137766 c 1.5,1.01148 2,1.01148 2,4.551662"
     style="fill:none;fill-rule:evenodd;stroke:#ffcec7;stroke-width:1.00572383;stroke-linecap:butt;stroke-linejoin:miter;stroke-miterlimit:4;stroke-dasharray:none;stroke-opacity:1" />
  <path
     style="fill:none;fill-rule:evenodd;stroke:#ffcec7;stroke-width:1.00572383;stroke-linecap:butt;stroke-linejoin:miter;stroke-miterlimit:4;stroke-dasharray:none;stroke-opacity:1"
     d="m 6,12.137766 c 1.5,1.01148 2,1.01148 2,4.551662"
     id="path4231"
     inkscape:connector-curvature="0"
     sodipodi:nodetypes="cc"
     clip-path="url(#clipPath7042)" />
  <path
     style="fill:none;fill-rule:evenodd;stroke:#000000;stroke-width:1.00572383;stroke-linecap:butt;stroke-linejoin:miter;stroke-miterlimit:4;stroke-dasharray:none;stroke-opacity:1"
     d="m 2.5,4.5516621 c -1.2655467,1.2800755 -2,2.0229609 -2,4.0459218 0,2.0229611 0.7655467,2.7972961 2,4.0459221 1,1.01148 2,1.01148 3,0 1.2481495,-1.262479 2,-2.022961 2,-4.0459221 0,-2.0229609 -0.7481495,-2.7796995 -2,-4.0459218"
     id="path4199"
     inkscape:connector-curvature="0"
     sodipodi:nodetypes="cssssc"
     clip-path="none" />
  <path
     style="fill:none;fill-rule:evenodd;stroke:#ffcec7;stroke-width:1.00572383;stroke-linecap:butt;stroke-linejoin:miter;stroke-miterlimit:4;stroke-dasharray:none;stroke-opacity:1"
     d="M 1,6.3217529 C 1,8.3447138 1.890625,12.975398 4.40625,13.402116"
     id="path4219"
     inkscape:connector-curvature="0"
     sodipodi:nodetypes="cc"
     clip-path="none" />
  <path
     sodipodi:nodetypes="cc"
     inkscape:connector-curvature="0"
     id="path4233"
     d="M 6,4.0459218 C 7.5,5.0574023 8,5.0574023 8,8.5975839"
     style="fill:none;fill-rule:evenodd;stroke:#ffcec7;stroke-width:1.00572383;stroke-linecap:butt;stroke-linejoin:miter;stroke-miterlimit:4;stroke-dasharray:none;stroke-opacity:1"
     clip-path="none" />
  <path
     sodipodi:nodetypes="cssssc"
     inkscape:connector-curvature="0"
     id="path4201"
     d="m 2.5,4.5516621 c -1.2655467,1.2800755 -2,2.0229609 -2,4.0459218 0,2.0229611 0.7655467,2.7972961 2,4.0459221 1,1.01148 2,1.01148 3,0 1.2481495,-1.262479 2,-2.022961 2,-4.0459221 0,-2.0229609 -0.7481495,-2.7796995 -2,-4.0459218"
     style="fill:none;fill-rule:evenodd;stroke:#000000;stroke-width:1.00572383;stroke-linecap:butt;stroke-linejoin:miter;stroke-miterlimit:4;stroke-dasharray:none;stroke-opacity:1"
     clip-path="none" />
  <path
     sodipodi:nodetypes="cc"
     inkscape:connector-curvature="0"
     id="path4221"
     d="m 2,-3.5 c 0,4 1.78125,13.15625 6.8125,14"
     style="fill:none;fill-rule:evenodd;stroke:#ffcec7;stroke-width:2;stroke-linecap:butt;stroke-linejoin:miter;stroke-miterlimit:4;stroke-dasharray:none;stroke-opacity:1"
     clip-path="url(#clipPath7038)"
     transform="scale(0.5,0.50574023)" />
  <rect
     style="opacity:1;fill:#ffcec7;fill-opacity:1;fill-rule:nonzero;stroke:none;stroke-width:2;stroke-linecap:round;stroke-linejoin:round;stroke-miterlimit:4;stroke-dasharray:none;stroke-opacity:1"
     id="rect4235"
     width="1"
     height="0.50574023"
     x="7.5"
     y="0"
     ry="0"
     clip-path="none" />
  <path
     style="fill:none;fill-rule:evenodd;stroke:#000000;stroke-width:2;stroke-linecap:butt;stroke-linejoin:miter;stroke-miterlimit:4;stroke-dasharray:none;stroke-opacity:1"
     d="m 5,-7 c -2.5310934,2.531093 -4,4 -4,8 0,4 1.5310934,5.531093 4,8 2,2 4,2 6,0 2.496299,-2.496299 4,-4 4,-8 0,-4 -1.496299,-5.496299 -4,-8"
     id="path4205"
     inkscape:connector-curvature="0"
     sodipodi:nodetypes="cssssc"
     clip-path="url(#clipPath7034)"
     transform="scale(0.5,0.50574023)" />
  <path
     style="fill:none;fill-rule:evenodd;stroke:#ffcec7;stroke-width:2;stroke-linecap:butt;stroke-linejoin:miter;stroke-miterlimit:4;stroke-dasharray:none;stroke-opacity:1"
     d="m 2,28.5 c 0,4 1.78125,13.15625 6.8125,14"
     id="path4223"
     inkscape:connector-curvature="0"
     sodipodi:nodetypes="cc"
     clip-path="url(#clipPath7030)"
     transform="scale(0.5,0.50574023)" />
  <path
     style="fill:none;fill-rule:evenodd;stroke:#000000;stroke-width:2;stroke-linecap:butt;stroke-linejoin:miter;stroke-miterlimit:4;stroke-dasharray:none;stroke-opacity:1"
     d="m 5,25 c -2.5310934,2.531093 -4,4 -4,8 0,4 1.5310934,5.531093 4,8 2,2 4,2 6,0 2.496299,-2.496299 4,-4 4,-8 0,-4 -1.496299,-5.496299 -4,-8"
     id="path4207"
     inkscape:connector-curvature="0"
     sodipodi:nodetypes="cssssc"
     clip-path="url(#clipPath7026)"
     transform="scale(0.5,0.50574023)" />
  <path
     sodipodi:nodetypes="cssssc"
     inkscape:connector-curvature="0"
     id="path4209"
     d="m 10.5,4.5516621 c -1.2655465,1.2800755 -2,2.0229609 -2,4.0459218 0,2.0229611 0.7655465,2.7972961 2,4.0459221 1,1.01148 2,1.01148 3,0 1.24815,-1.262479 2,-2.022961 2,-4.0459221 0,-2.0229609 -0.748149,-2.7796995 -2,-4.0459218"
     style="fill:none;fill-rule:evenodd;stroke:#000000;stroke-width:1.00572383;stroke-linecap:butt;stroke-linejoin:miter;stroke-miterlimit:4;stroke-dasharray:none;stroke-opacity:1"
     clip-path="none" />
  <path
     sodipodi:nodetypes="cc"
     inkscape:connector-curvature="0"
     id="path4225"
     d="m 9,6.3217529 c 0,2.0229609 0.890625,6.6536451 3.40625,7.0803631"
     style="fill:none;fill-rule:evenodd;stroke:#ffcec7;stroke-width:1.00572383;stroke-linecap:butt;stroke-linejoin:miter;stroke-miterlimit:4;stroke-dasharray:none;stroke-opacity:1"
     clip-path="none" />
  <path
     style="fill:none;fill-rule:evenodd;stroke:#000000;stroke-width:1.00572383;stroke-linecap:butt;stroke-linejoin:miter;stroke-miterlimit:4;stroke-dasharray:none;stroke-opacity:1"
     d="m 10.5,4.5516621 c -1.2655465,1.2800755 -2,2.0229609 -2,4.0459218 0,2.0229611 0.7655465,2.7972961 2,4.0459221 1,1.01148 2,1.01148 3,0 1.24815,-1.262479 2,-2.022961 2,-4.0459221 0,-2.0229609 -0.748149,-2.7796995 -2,-4.0459218"
     id="path4211"
     inkscape:connector-curvature="0"
     sodipodi:nodetypes="cssssc"
     clip-path="none" />
  <path
     style="fill:none;fill-rule:evenodd;stroke:#ffcec7;stroke-width:2;stroke-linecap:butt;stroke-linejoin:miter;stroke-miterlimit:4;stroke-dasharray:none;stroke-opacity:1"
     d="m 18,-3.5 c 0,4 1.78125,13.15625 6.8125,14"
     id="path4227"
     inkscape:connector-curvature="0"
     sodipodi:nodetypes="cc"
     clip-path="url(#clipPath7022)"
     transform="scale(0.5,0.50574023)" />
  <path
     sodipodi:nodetypes="cssssc"
     inkscape:connector-curvature="0"
     id="path4213"
     d="m 21,-7 c -2.531093,2.531093 -4,4 -4,8 0,4 1.531093,5.531093 4,8 2,2 4,2 6,0 2.496299,-2.496299 4,-4 4,-8 0,-4 -1.496299,-5.496299 -4,-8"
     style="fill:none;fill-rule:evenodd;stroke:#000000;stroke-width:2;stroke-linecap:butt;stroke-linejoin:miter;stroke-miterlimit:4;stroke-dasharray:none;stroke-opacity:1"
     clip-path="url(#clipPath7018)"
     transform="scale(0.5,0.50574023)" />
  <path
     sodipodi:nodetypes="cc"
     inkscape:connector-curvature="0"
     id="path4229"
     d="m 18,28.5 c 0,4 1.78125,13.15625 6.8125,14"
     style="fill:none;fill-rule:evenodd;stroke:#ffcec7;stroke-width:2;stroke-linecap:butt;stroke-linejoin:miter;stroke-miterlimit:4;stroke-dasharray:none;stroke-opacity:1"
     clip-path="url(#clipPath7014)"
     transform="scale(0.5,0.50574023)" />
  <path
     sodipodi:nodetypes="cssssc"
     inkscape:connector-curvature="0"
     id="path4215"
     d="m 21,25 c -2.531093,2.531093 -4,4 -4,8 0,4 1.531093,5.531093 4,8 2,2 4,2 6,0 2.496299,-2.496299 4,-4 4,-8 0,-4 -1.496299,-5.496299 -4,-8"
     style="fill:none;fill-rule:evenodd;stroke:#000000;stroke-width:2;stroke-linecap:butt;stroke-linejoin:miter;stroke-miterlimit:4;stroke-dasharray:none;stroke-opacity:1"
     clip-path="url(#clipPath7010)"
     transform="scale(0.5,0.50574023)" />
</svg>
